<?xml version="1.0" encoding="UTF-8"?>
<svg id="_レイヤー_2" xmlns="http://www.w3.org/2000/svg" xmlns:xlink="http://www.w3.org/1999/xlink" version="1.1" viewBox="0 0 261.6 123.6">
  <!-- Generator: Adobe Illustrator 29.6.1, SVG Export Plug-In . SVG Version: 2.1.1 Build 9)  -->
  <defs>
    <style>
      .st0 {
        fill: #3e3e3e;
      }

      .st1, .st2 {
        isolation: isolate;
      }

      .st3 {
        fill: url(#_名称未設定グラデーション_5);
      }

      .st4 {
        fill: url(#_名称未設定グラデーション_4);
      }

      .st5 {
        fill: url(#_名称未設定グラデーション_3);
      }

      .st6 {
        fill: url(#_名称未設定グラデーション_2);
      }

      .st2 {
        font-family: Chalkduster, Chalkduster;
        font-size: 63.8px;
      }

      .st7 {
        fill: url(#_名称未設定グラデーション);
      }
    </style>
    <linearGradient id="_名称未設定グラデーション" data-name="名称未設定グラデーション" x1="0" y1="81.4" x2="261.6" y2="81.4" gradientTransform="translate(0 126) scale(1 -1)" gradientUnits="userSpaceOnUse">
      <stop offset=".1" stop-color="#181e4d"/>
      <stop offset=".3" stop-color="#19204f"/>
      <stop offset=".5" stop-color="#1e2957"/>
      <stop offset=".6" stop-color="#273964"/>
      <stop offset=".7" stop-color="#334f77"/>
      <stop offset=".7" stop-color="#426b90"/>
      <stop offset=".8" stop-color="#568eae"/>
      <stop offset=".9" stop-color="#6db7d1"/>
      <stop offset="1" stop-color="#86e6fa"/>
      <stop offset="1" stop-color="#8aecff"/>
    </linearGradient>
    <linearGradient id="_名称未設定グラデーション_2" data-name="名称未設定グラデーション 2" x1="0" y1="81.4" x2="261.6" y2="81.4" gradientTransform="translate(0 126) scale(1 -1)" gradientUnits="userSpaceOnUse">
      <stop offset=".1" stop-color="#181e4d"/>
      <stop offset=".3" stop-color="#19204f"/>
      <stop offset=".5" stop-color="#1e2957"/>
      <stop offset=".6" stop-color="#273964"/>
      <stop offset=".7" stop-color="#334f77"/>
      <stop offset=".7" stop-color="#426b90"/>
      <stop offset=".8" stop-color="#568eae"/>
      <stop offset=".9" stop-color="#6db7d1"/>
      <stop offset="1" stop-color="#86e6fa"/>
      <stop offset="1" stop-color="#8aecff"/>
    </linearGradient>
    <linearGradient id="_名称未設定グラデーション_3" data-name="名称未設定グラデーション 3" x1="0" y1="73.2" x2="261.6" y2="73.2" gradientTransform="translate(0 126) scale(1 -1)" gradientUnits="userSpaceOnUse">
      <stop offset=".1" stop-color="#181e4d"/>
      <stop offset=".3" stop-color="#19204f"/>
      <stop offset=".5" stop-color="#1e2957"/>
      <stop offset=".6" stop-color="#273964"/>
      <stop offset=".7" stop-color="#334f77"/>
      <stop offset=".7" stop-color="#426b90"/>
      <stop offset=".8" stop-color="#568eae"/>
      <stop offset=".9" stop-color="#6db7d1"/>
      <stop offset="1" stop-color="#86e6fa"/>
      <stop offset="1" stop-color="#8aecff"/>
    </linearGradient>
    <linearGradient id="_名称未設定グラデーション_4" data-name="名称未設定グラデーション 4" x1="0" y1="73.2" x2="261.6" y2="73.2" gradientTransform="translate(0 126) scale(1 -1)" gradientUnits="userSpaceOnUse">
      <stop offset=".1" stop-color="#181e4d"/>
      <stop offset=".3" stop-color="#19204f"/>
      <stop offset=".5" stop-color="#1e2957"/>
      <stop offset=".6" stop-color="#273964"/>
      <stop offset=".7" stop-color="#334f77"/>
      <stop offset=".7" stop-color="#426b90"/>
      <stop offset=".8" stop-color="#568eae"/>
      <stop offset=".9" stop-color="#6db7d1"/>
      <stop offset="1" stop-color="#86e6fa"/>
      <stop offset="1" stop-color="#8aecff"/>
    </linearGradient>
    <linearGradient id="_名称未設定グラデーション_5" data-name="名称未設定グラデーション 5" x1="0" y1="80.3" x2="261.6" y2="80.3" gradientTransform="translate(0 126) scale(1 -1)" gradientUnits="userSpaceOnUse">
      <stop offset=".1" stop-color="#181e4d"/>
      <stop offset=".3" stop-color="#19204f"/>
      <stop offset=".5" stop-color="#1e2957"/>
      <stop offset=".6" stop-color="#273964"/>
      <stop offset=".7" stop-color="#334f77"/>
      <stop offset=".7" stop-color="#426b90"/>
      <stop offset=".8" stop-color="#568eae"/>
      <stop offset=".9" stop-color="#6db7d1"/>
      <stop offset="1" stop-color="#86e6fa"/>
      <stop offset="1" stop-color="#8aecff"/>
    </linearGradient>
  </defs>
  <g id="_編集_ワイヤーフレーム">
    <g>
      <g>
        <g class="st1">
          <g class="st1">
            <path class="st0" d="M20,118.8h-9.5c0,0-.1,0-.1-.2s0-.2.1-.2h.2c.5,0,.8,0,1.1-.3s.4-.5.4-1v-9c0-.5-.1-.8-.4-1-.3-.2-.6-.3-1-.3h-.2c0,0-.1,0-.1-.2s0-.2.1-.2h5.3c0,0,0,0,.1,0s0,0,0,.2c0,.1,0,.2-.1.2h-.2c-.5,0-.8,0-1.1.3-.3.2-.4.5-.4,1v9.1c0,.4.1.7.3.8.2.1.6.2,1.1.3h.4s.6,0,.6,0c1,0,1.8-.3,2.5-.8.7-.5,1.2-1.1,1.7-1.8,0,0,0,0,.1-.1,0,0,0,0,0,0s0,0,.2,0c0,0,.1,0,.1.2h0c0,0-1.1,3-1.1,3,0,0,0,.1-.2.1Z"/>
            <path class="st0" d="M22.7,118.8c0,0-.1,0-.1-.2s0-.2.1-.2h.2c.3,0,.6,0,.8-.1s.3-.3.3-.6v-5.2c0-.2,0-.4-.2-.5,0-.1-.2-.2-.4-.2s-.4,0-.6-.1c0,0-.1,0-.1,0,0,0,0,0,0-.2s0,0,0-.1c0,0,0,0,0,0,.2,0,1.1-.3,2.8-.6h0c0,0,.1,0,.1.1v7c0,.3,0,.5.3.6.2,0,.5.1.8.1h.2c0,0,.1,0,.1.2s0,.2-.1.2h-4.2ZM23.9,108.2c-.2-.2-.3-.5-.3-.8s.1-.6.3-.8c.2-.2.5-.3.8-.3s.6.1.8.3c.2.2.3.5.3.8s-.1.6-.3.8c-.2.2-.5.3-.8.3s-.6-.1-.8-.3Z"/>
            <path class="st0" d="M37.8,118.4c0,0,.1,0,.1.2s0,.2-.1.2h-4.1c0,0-.1,0-.1-.2s0-.2.1-.2h.2c.3,0,.6,0,.7-.2.2-.1.3-.3.3-.6v-4.3c0-1.3-.6-2-1.6-2s-.8.1-1.2.4-.7.6-1,1.1v4.9c0,.3,0,.5.3.6.2.1.4.2.8.2h.2c0,0,.1,0,.1.2s0,.2-.1.2h-4.1c0,0-.1,0-.1-.2s0-.2.1-.2h.2c.3,0,.6,0,.7-.2.2-.1.3-.3.3-.6v-5.2c0-.3-.1-.6-.3-.7-.2-.1-.5-.2-.9-.2-.1,0-.2-.1-.2-.3s0,0,0,0c0,0,0,0,.2,0l1.6-.4,1.1-.2h0c0,0,.1,0,.1.1v1.4c.7-1,1.6-1.5,2.6-1.5s1.6.3,2,.8c.5.5.7,1.1.7,1.8,0,.2,0,.7,0,1.4s0,1.9,0,3.1c0,.3,0,.5.3.6.2.1.4.2.8.2h.2Z"/>
            <path class="st0" d="M48.7,118.4c0,0,.1,0,.1.2s0,.2-.1.2h-4c0,0,0,0-.1,0,0,0,0,0,0-.2,0-.1,0-.2.1-.2h.2c.2,0,.3,0,.4-.1.1,0,.2-.2.2-.3s0-.3-.1-.4c-.7-1-1.5-2-2.2-3l-1,1v2c0,.3,0,.5.3.6.2.1.4.2.7.2h.2c0,0,.1,0,.1.2s0,.2-.1.2h-4.1c0,0-.1,0-.1-.2s0-.2.1-.2h.2c.3,0,.6,0,.8-.2.2-.1.3-.3.3-.6v-9.4c0-.3-.1-.6-.3-.7-.2-.1-.5-.2-.9-.2s-.2,0-.2-.3,0,0,0-.1c0,0,0,0,0,0,0,0,0,0,0,0l2.7-.6h0c0,0,.1,0,.1.1v8.4c1.9-1.7,2.9-2.6,3.1-2.8.1-.1.2-.3.2-.4s0-.3-.2-.4c-.1-.1-.3-.2-.6-.2h-.2c0,0-.1,0-.1-.2s0-.2.1-.2h3.9c0,0,.1,0,.1.2s0,.1,0,.2c0,0,0,0-.2,0h-.1c-.3,0-.7.1-1,.3-.3.2-.7.4-1.1.7l-1.7,1.5,1,1.3,2,2.7c.2.3.4.5.6.6s.4.2.7.2h.2Z"/>
          </g>
        </g>
        <g class="st1">
          <g class="st1">
            <path class="st0" d="M203.3,118.8h-9.5c0,0-.1,0-.1-.2s0-.2.1-.2h.2c.5,0,.8,0,1.1-.3s.4-.5.4-1v-9c0-.5-.1-.8-.4-1-.3-.2-.6-.3-1-.3h-.2c0,0-.1,0-.1-.2s0-.2.1-.2h5.3c0,0,0,0,.1,0,0,0,0,0,0,.2,0,.1,0,.2-.1.2h-.2c-.5,0-.8,0-1.1.3-.3.2-.4.5-.4,1v9.1c0,.4.1.7.3.8.2.1.6.2,1.1.3h.4s.6,0,.6,0c1,0,1.8-.3,2.5-.8.7-.5,1.2-1.1,1.7-1.8,0,0,0,0,.1-.1,0,0,0,0,0,0s0,0,.2,0c0,0,.1,0,.1.2h0c0,0-1.1,3-1.1,3,0,0,0,.1-.2.1Z"/>
            <path class="st0" d="M208,118.4c-.6-.4-1.1-1-1.5-1.6s-.5-1.3-.5-2.1.2-1.4.5-2.1.8-1.2,1.5-1.6c.6-.4,1.4-.6,2.2-.6s1.6.2,2.2.6c.6.4,1.1.9,1.5,1.6s.5,1.4.5,2.1-.2,1.4-.5,2.1-.8,1.2-1.5,1.6-1.4.6-2.2.6-1.5-.2-2.2-.6ZM211.9,117.4c.4-.7.6-1.6.6-2.7s-.2-2-.6-2.7c-.4-.7-1-1.1-1.7-1.1s-1.3.4-1.7,1.1c-.4.7-.6,1.6-.6,2.7s.2,2,.6,2.7c.4.7,1,1.1,1.7,1.1s1.3-.4,1.7-1.1Z"/>
            <path class="st0" d="M217.8,118.4c-.6-.4-1.1-1-1.5-1.6s-.5-1.3-.5-2.1.2-1.4.5-2.1.8-1.2,1.5-1.6c.6-.4,1.4-.6,2.2-.6s1.6.2,2.2.6c.6.4,1.1.9,1.5,1.6s.5,1.4.5,2.1-.2,1.4-.5,2.1c-.3.7-.8,1.2-1.5,1.6-.6.4-1.4.6-2.2.6s-1.5-.2-2.2-.6ZM221.7,117.4c.4-.7.6-1.6.6-2.7s-.2-2-.6-2.7-1-1.1-1.7-1.1-1.3.4-1.7,1.1c-.4.7-.6,1.6-.6,2.7s.2,2,.6,2.7c.4.7,1,1.1,1.7,1.1s1.3-.4,1.7-1.1Z"/>
            <path class="st0" d="M232.9,111c.5.4,1,.9,1.3,1.5.3.6.5,1.4.5,2.1s-.2,1.5-.5,2.2c-.3.7-.7,1.2-1.3,1.6s-1.1.6-1.8.6c-1,0-1.9-.3-2.6-1v3.5c0,.3,0,.5.3.6s.4.2.8.2h.2c0,0,.1,0,.1.2s0,.2-.1.2h-4.1c0,0-.1,0-.1-.2s0-.2.1-.2h.2c.3,0,.6,0,.8-.2.2-.1.3-.3.3-.6v-9c0-.3-.1-.6-.3-.7-.2-.1-.5-.2-.9-.2-.1,0-.2,0-.2-.3s0-.1.1-.1c.3,0,.7-.2,1.3-.3.6-.1,1.1-.2,1.5-.3h0c0,0,.1,0,.1.1v.9c.8-.7,1.6-1,2.6-1s1.3.2,1.8.5ZM231.5,117.9c.3-.2.6-.6.9-1.2s.4-1.3.4-2.1-.1-1.4-.3-1.9c-.2-.5-.5-.9-.8-1.1-.3-.3-.7-.4-1.1-.4s-.7,0-1,.3-.7.4-1,.7v5.2c.3.3.6.5.9.7.4.2.7.3,1,.3s.7-.1,1-.4Z"/>
          </g>
        </g>
      </g>
      <g class="st1">
        <g class="st1">
          <path class="st0" d="M125.4,117.1s0,0,0,.2,0,0,0,.1c-.8,1.1-1.8,1.6-3,1.6s-1.7-.3-2.5-.8c-1,.6-2.1.8-3.5.8s-1.6-.1-2.2-.4c-.6-.3-1-.6-1.3-1.1s-.4-1-.4-1.5c0-.8.3-1.5.9-2.1.6-.6,1.4-1.2,2.5-1.7-.4-1-.6-1.9-.6-2.7s.1-1.1.4-1.6c.3-.5.6-.9,1.1-1.1s1-.4,1.6-.4,1.1,0,1.5.3c.5.2.8.5,1.1.8.3.3.4.7.4,1.2,0,.6-.3,1.2-.9,1.7-.6.5-1.4,1-2.6,1.6.1.3.4.8.7,1.5.7,1.4,1.4,2.5,2.3,3.3.4-.5.8-1,1-1.6.2-.6.3-1.1.3-1.6s-.1-.8-.4-1-.7-.3-1.2-.3-.1,0-.1-.2,0-.2.1-.2h4.2c0,0,.1,0,.1.2s0,.2-.1.2c-1,0-1.6.5-1.9,1.5-.3,1.4-.9,2.5-1.7,3.4.3.3.7.6,1,.8.3.2.6.3.9.3s.7,0,.9-.2c.3-.2.6-.4.8-.7,0,0,.1-.1.2-.1s.1,0,.2,0ZM119.4,117.7c-.9-.8-1.8-2-2.6-3.6l-.3-.6c-.1-.3-.3-.5-.4-.8-.6.4-1,.8-1.3,1.2-.2.4-.4.9-.4,1.4s.1,1,.4,1.4c.3.4.6.8,1.1,1,.5.2,1,.4,1.6.4s1.3-.1,1.9-.4ZM117.4,107.3c-.3.4-.4.8-.4,1.3s.2,1.4.7,2.5c.8-.4,1.3-.9,1.7-1.3.4-.4.5-.9.5-1.4s-.1-.9-.4-1.2c-.3-.3-.6-.5-1.1-.5s-.8.2-1.1.5Z"/>
        </g>
      </g>
      <g>
        <g>
          <path d="M40.4,10.8l1.4.4c.3.1.8.1,1.1.1.4,0,.8.3,1.1.4.5,0,.9,0,1.3,0,.4,0,.6,0,1-.1.4-.1,1.3-.4,1.6-.7.3-.2.1-.9.3-1.3.2-.3.4-.6.5-1,.1-.4.2-.7.1-1.1,0-.4,0-.7-.1-1.1-.2-.4,0-.4-.2-.8-.2-.3-.4-.5-.6-.8s-.3-.6-.6-.9c-.3-.3-1.2-.5-1.5-.8-.3-.3-1.1-.3-1.5-.6-.4-.3-.9-.4-1.3-.6h0c-.2-.1-.7-.2-.9-.2-.2,0-.5,0-.7,0-.2,0-1.2,0-1.4-.1-.2,0-.4-.6-.6-.7-.2,0-.6.4-.8.4-.1,0-.3,0-.4.1-.2,0-.4,0-.6,0-.5,0-1,.4-1.5.3-.5,0-.9-.5-1.4-.5-.5,0-.9,0-1.4,0-.5,0-.9.3-1.4.2-.5,0-.9.2-1.4.2-.5,0-1-1-1.5-1-.5,0-1-.5-1.5-.5-.5,0-1,.7-1.5.7-.5,0-1.1-.5-1.6-.4-.5,0-1,.3-1.6.4-.5,0-1.1,0-1.6.2-.5.1-1.1.3-1.6.4-.5.2-.9.8-1.4,1-.5.2-1,.3-1.5.6-.5.2-.9.5-1.4.8-.4.3-1.1.4-1.5.8-.4.3-1.1.4-1.5.8-.4.4,0,1.4-.4,1.8-.4.4-1.1.5-1.4.9-.4.4-1,.6-1.3,1-.3.4-.3,1.1-.6,1.6-.3.4-1.6.6-1.9,1.2-.2.5-.1,1.2-.3,1.7-.2.5-.6,1-.8,1.6-.2.6,0,1.2-.2,1.7,0,.6-.3,1.1-.3,1.7,0,.6-.2,1.1-.2,1.7,0,.6.3,1.1.4,1.6,0,.5.2,1.1.3,1.6,0,.6.4,1.1.6,1.6,0,.5.2,1,.3,1.5.1.5.5.9.7,1.4.2.5-.4,1.2-.2,1.7.2.5,1.1.7,1.3,1.1.2.5.3,1,.6,1.4s.5.9.8,1.3c.3.4.1,1.1.5,1.6.3.4,1.5.1,1.8.5.3.4.2,1.2.6,1.5.4.3.7.7,1,1.1.4.3.5,1,.9,1.3.4.3,1.4-.2,1.8.1.4.3.6.9,1,1.1s.8.6,1.2.8c.4.2.7.9,1.2,1,.4.2,1,0,1.4,0,0,0,.1,0,.2.2,0,0,0,0,0,0-.4.3-.3,1-.7,1.3-.4.3-.5.7-.9,1s-.3,1.2-.6,1.5c-.4.3-.8.5-1.1.8-.4.3-.7.6-1,.9s-1.1.2-1.4.5c-.3.3-1.1.2-1.4.4-.3.3-.8.4-1.1.8-.3.3-.8.5-1.1.8-.3.3-.3,1-.7,1.3-.3.3-1.1.3-1.4.6-.3.3-.4.8-.7,1.2-.3.4-.4.9-.7,1.3-.3.4-1.3.3-1.6.7-.3.4-.6.6-.9,1-.3.4,0,1.1-.3,1.5-.3.4-1.1.6-1.4,1.1-.3.5,0,1.1-.3,1.6-.2.5-1.2.6-1.5,1.2-.2.5,0,1.2-.2,1.7-.2.5-.7.9-.9,1.4-.2.5-.2,1.1-.4,1.7-.2.6-.7,1-.8,1.6-.2.6.7,1.5.7,2.1,0,.6,1,1.1.9,1.6,0,.6.1,1.1.2,1.7.1.6.6.8.8,1.3.2.6.8.9,1.1,1.4.2.5.2,1.2.5,1.6.3.5.9.7,1.3,1.1.4.4,1,.4,1.4.8.4.3.4,1.1.8,1.4.4.3.5,1,.9,1.2.5.2.9.6,1.3.8.5.2.9.6,1.3.8.5.2,1.1-.1,1.5,0,.5.2.9.2,1.4.3.4.1.8.9,1.2,1.1s1,0,1.4,0c.5.1.9.5,1.4.6.5.1,1.1-.3,1.5-.2.5.1.7,1.2,1.2,1.3.5,0,.9.6,1.4.7.5.1.9.4,1.4.5.5,0,1.1,0,1.6,0,.5,0,1.1-.3,1.5-.3.5,0,1,.3,1.5.4s1-.2,1.5-.2c.5,0,1,.4,1.6.4.5,0,1.1,0,1.6,0s1.2.3,1.7.1c.6-.1,1-.3,1.6-.4.5-.2,1.1-.3,1.6-.4.5-.1.9-.4,1.4-.6.5-.1.9-.4,1.4-.6.5-.2.9-.8,1.3-1h.2c.2,0,2-.5,2.2-.6s.5-.1.7-.2.5-.3.7-.4c.3-.1,1.3-.9,1.5-1.1.5-.4.9-.9,1.3-1.3.2-.2.4-.4.7-.7.2-.3.5-.6.6-.8.4-.6.9-.9,1.1-1.4.3-.7,0-1.2.2-1.7.1-.5.2-1.1.3-1.7.1-.3,1.1-.8,1.4-1.6.3-.6-.2-1.4,0-2,.2-.6.1-1,.2-1.5.2-.7.3-1.4.3-1.8,0-.7-.3-1.2-.4-1.7-.1-.6.6-1.2.4-1.7-.1-.5.2-1.1,0-1.7,0-.5-1-.9-1-1.5,0-.4.3-.8.2-1.2,0-.4-.6-.7-.7-1.1-.1-.7-.3-1.3-.6-2-.1-.5-.2-1-.4-1.5-.2-.5-.5-.9-.7-1.4-.2-.5-.2-1-.4-1.5-.3-.5-.9-.7-1.2-1.2-.3-.5-.8-.8-1.1-1.2-.3-.5-.3-1.1-.7-1.5-.3-.4-.5-1-.9-1.3-.4-.3-.9-.5-1.3-.8-.4-.3-.4-1-.8-1.3-.4-.3-1-.4-1.3-.7s-.6-.8-1-1.1c-.4-.3-1.1-.2-1.4-.5-.4-.3-.8-.5-1.2-.8-.4-.3-.8-.4-1.2-.7-.4-.3-.7-.6-1.1-.9-.4-.2-.6-.8-1-1-.1,0-.3,0-.5,0,0-.3,0-.8.3-1,.3-.3.9-.3,1.2-.5.3-.3,1-.2,1.3-.5.3-.3.3-1,.6-1.2.3-.3.7-.5,1-.8.3-.3.2-.6.5-.8.3-.3.5-.7.8-1,.3-.3.4,0,.8-.2.3-.3.7-.5,1.1-.8.4-.3,1.4.5,1.7.2.4-.3,1-.2,1.3-.4.4-.3.9-.2,1.2-.4.3-.2.4-1,.8-1.2.4-.2,1.1.4,1.5.2.3-.2.3-2,.8-2.2.3-.1,1,0,1.4-.1.4-.2.5-.9.9-1.1.4-.3.8-.8,1.1-.9.4-.1.9,0,1.3-.3.4-.2,1,0,1.4-.3.4-.2.8-.5,1.2-.8.4-.2,1.2-.4,1.7-.5.4-.2,1.6-.7,2-1h0c.5-.3.9-.7,1.2-.9.6-.4.8-1,1.1-1.2.5-.4,1.3-.8,1.7-1.3.4-.5,0-1,.2-1.4.2-.5.4-.9.6-1.3.1-.4.2-.8.2-1.2s-.4-.6-.6-.9c-.2-.4,0-.8-.3-1s.2-1.2-.2-1.3c-.4-.2-1.6.5-2.1.5s-.7-.8-1.3-.7c-.6.1-1.4,1.4-2,1.6-.6.2-1.2,0-1.8.3-.6.3-1,.5-1.6.9h0c-.4.3-.9.6-1.2.9-.4.3-.9.6-1.2.8-.4.3-.8.3-1.1.6-.4.4-.3.9-.6,1.2-.3.3-.6.7-.9,1-.2.2-1.2-.2-1.8,0-.4.2-.6,1-1.1,1.2-.5.2-.7.5-1.1.7-.6.2-1.1.5-1.3.7-.5.3-.7.8-1,1.1-.5.4-1.2,0-1.5.3-.3.3-.9.3-1.4.6-.3.2-.3,1.2-.8,1.5-.3.1-.8,0-1.1.1-.3.2-.4.7-.7.9-.5.3-1,.6-1.5,1-.4.2-.8.4-1.2.7-.4.2-.7.6-1,.9-.4.3-.9.3-1.3.5-.4.3-.5.9-.8,1.1-.4.3-.6.7-1,1s-1,.2-1.3.5c-.3.3-.9.4-1.2.6-.3.3-.5.7-.9,1-.3.3-1,.2-1.3.5-.2.2-.3.4-.5.6-.1-.2-.2-.4-.4-.5-.4-.2-.6-.5-1-.8-.4-.2-.7-.5-1-.7-.4-.2-1,0-1.4-.2-.4-.2-.5-.9-.9-1.1-.4-.2-.8-.1-1.2-.3-.3-.2-.8-.1-1.2-.3-.4-.2-.3-1.2-.7-1.3-.4-.2-.4-.5-.8-.7-.3-.2-.9,0-1.2-.2-.4-.2-.2-1-.6-1.2-.3-.2-.9,0-1.2-.3-.3-.3,0-1.1-.2-1.4-.2-.3-.9-.2-1.1-.5-.2-.3-.1-.7-.3-1.1-.2-.3-.4-.6-.6-.9-.1-.3.2-.8,0-1.1,0-.3-1.1-.4-1.1-.8,0-.3-1-.4-1-.7,0-.4,0-.7,0-1,0-.4-.4-.5-.4-.8,0-.3-.4-.7-.4-1.1,0-.4.5-.7.5-1,0-.3-.2-.7-.2-1,0-.3-.3-.7-.2-1.1,0-.4.8-.5.8-.8.1-.3.6-.4.8-.7.1-.3.3-.6.5-.9.1-.3.5-.5.6-.8.2-.3,0-.8.1-1.1.2-.3.3-.7.6-.9.2-.3,1,0,1.2-.3.2-.2.3-.7.5-1,.3-.2.8-.3,1.1-.4.3-.2.4-.9.7-1.1.4-.2,1.1.5,1.5.4.4-.1.8,0,1.2,0,.4-.1.7,0,1.1-.1.4,0,.7-.4,1.1-.5.4,0,.6-.6,1-.7.4,0,.8.1,1.2.1.4,0,.7-.3,1.1-.4.4,0,.8.4,1.2.3.4,0,.8,0,1.2,0,.4,0,.8.4,1.2.3.4,0,.8,0,1.2,0,.4,0,.8,0,1.2,0,.4,0,.8,0,1.1,0,.4.1.8,0,1.2.2.3.1.9-.3,1.3-.2h.2c.2.2,1.4.9,1.5,1,.2.1.3.2.5.3.2,0,.4,0,.6.2.2.1,1.1.4,1.3.5M35.8,49c.3.3,0,1.2.3,1.5.3.3.7.5,1,.7.3.2.9.2,1.2.4.3.3.9.1,1.2.4.3.3.2.9.5,1.2.3.3.2.9.5,1.1.3.3,1.1,0,1.4.3.3.3.3.8.5,1.1.2.3.1.8.3,1.1.2.3.9.3,1.1.6.2.3.3.7.6,1,.2.3.5.3.7.6.2.3.6.6.8,1,.2.4-.2.4,0,.8.2.4.3.8.4,1.2.2.4-.9,1.2-.8,1.5.1.4-.2.9-.1,1.2.1.4-.2.8-.1,1.2,0,.3.7.7.7,1.1,0,.3-.9.7-.9,1.1,0,.3,1.5,1.1,1.5,1.6-.1.3-.7.6-.7,1,0,.3.4.8.3,1.1,0,.4,0,.9-.1,1.1-.2.3-.5.5-.7.8-.2.3-.7.4-.8.6-.2.2-.3.5-.4.8-.2.2-.7.3-.9.5-.3.2-1.1.8-1.4,1-.1,0-.4.4-.5.5-.1.1-.1.4-.3.5-.2.1-.6.7-.7.8-.2,0-.6-.3-.7-.2-.1.1,0,.6-.2.8,0,0-.1.2-.2.3,0,.1-.2.2-.3.3-.3.2-.4.8-.8,1s-.8,0-1.2,0c-.3.1-.6.4-1,.5-.3.1-.6.5-1,.6-.3.1-.7.4-1.1.5-.4,0-1-.9-1.4-.9-.4,0-.8-.5-1.2-.5s-.8.7-1.2.7c-.4,0-.8-.6-1.2-.6-.4,0-.8,0-1.2,0-.4,0-.8-.2-1.2-.3s-.8-.2-1.2-.2c-.4,0-.9.4-1.4.3-.4,0-.8-.2-1.2-.3-.4,0-.9-.1-1.3-.2-.4,0-.8-.4-1.2-.4-.4,0-.8-.5-1.2-.6-.4,0-1,.8-1.4.7s-.7-.6-1.1-.8c-.4-.1-.6-.6-1-.7-.4-.1-.9.1-1.2,0-.4-.2-.4-1.3-.7-1.5-.3-.2-.8,0-1.1-.2-.3-.2-.4-.6-.7-.8-.3-.2-.7-.3-1-.5-.3-.2-.4-.6-.6-.8-.2-.2-.3-.6-.5-.9-.2-.3-.6-.4-.7-.7-.1-.3-.3-.5-.4-.8,0-.3-.4-.6-.4-.9,0-.3,0-.6,0-.9,0-.3-.2-.6-.1-.9,0-.3.9-.4,1.1-.7,0-.3-.5-.8-.4-1.1.1-.3.4-.6.5-.8.1-.3.4-.6.5-.8.2-.3.8-.3,1-.6.2-.3-.5-1.2-.2-1.5.2-.3,1-.2,1.2-.5.2-.3.5-.5.8-.8.3-.3.8-.3,1.1-.6.3-.3-.2-1.3.1-1.6.3-.3.8-.3,1.1-.6.3-.3.7-.5.9-.9.3-.3.9-.4,1.2-.7.3-.3.2-.9.4-1.2.3-.3.9-.3,1.2-.6.3-.3-.2-1.3,0-1.6.3-.3,1.3,0,1.6-.2s.9-.8,1.2-1.1c.3-.3.7-.5,1-.7.3-.3.5-.7.8-1,.4-.3,1-.2,1.4-.5.4-.3.7-.5,1.1-.8.4-.3-.5-2.2-.1-2.5.4-.3,1-.2,1.3-.5.4-.2.2-1,.6-1.2,0,0,.2-.1.3-.2.2,0,.5,0,.7.2.4.2.6.9,1,1.1.4.2.8.5,1.1.7.4.2,1.8-1.3,2.2-1,.4.3.5.8.9,1.1.4.3,1-.2,1.3.1.3.3.7.5,1.1.9h0Z"/>
          <path d="M261.1,48.5c0-.5.5-1,.5-1.5,0-.5-.7-1-.7-1.5,0-.5.5-1,.4-1.6,0-.5-.3-1-.4-1.6,0-.5,0-1.1-.2-1.6-.1-.5-.2-1-.4-1.6-.2-.5-.8-.9-1-1.4s-.3-1-.6-1.5c-.2-.5-.5-1-.8-1.4-.3-.5-.4-1.1-.8-1.5-.3-.4-.4-1.1-.8-1.5-.4-.4-1.4,0-1.8-.4-.4-.4-.4-1.1-.9-1.5-.4-.4-.6-1-1-1.3-.4-.3-1.1-.3-1.6-.6-.4-.3-.6-1.6-1.2-1.9-.5-.2-1.2-.1-1.7-.3-.5-.2-1-.6-1.6-.8-.6-.1-1.1,0-1.7-.1-.6,0-1.1-.3-1.7-.3-.6,0-1.1-.3-1.7-.2-.6,0-1.1.3-1.6.4-.6,0-1.1.2-1.6.3-.6,0-1.1.5-1.6.6-.5,0-1,.2-1.5.3-.5.1-.9.5-1.4.7-.5.2-1.2-.4-1.7-.2-.5.2-.7,1.1-1.1,1.3s-.9.3-1.4.6c-.4.3-.9.5-1.3.8-.4.3-1.1.1-1.6.5-.4.3-.1,1.5-.5,1.8-.4.3-1.2.2-1.5.6-.3.3-.7.7-1.1,1-.3.4-1,.5-1.3.9-.3.4.2,1.5-.1,1.8-.3.4-.9.6-1.1,1-.3.4-.6.8-.8,1.2-.2.4-.9.7-1,1.2-.2.4,0,1,0,1.4,0,0,0,.2-.1.2,0,0,0,0,0,0-.3-.3-1-.3-1.3-.7-.3-.4-.7-.5-1-.9-.3-.4-1.2-.3-1.5-.6-.3-.3-.5-.8-.8-1.1s-.6-.7-.9-1c-.3-.3-.2-1.1-.5-1.4s-.1-1.1-.4-1.5-.4-.8-.8-1.1c-.3-.3-.5-.7-.8-1.1-.3-.3-1-.3-1.3-.7-.3-.3-.3-1.1-.6-1.4-.3-.3-.8-.4-1.2-.7s-.9-.4-1.3-.7c-.4-.3-.3-1.3-.7-1.6-.4-.3-.6-.6-1-.9-.4-.3-1.1-.1-1.5-.4-.4-.3-.6-1.1-1.1-1.4-.5-.2-1.1,0-1.6-.3-.5-.2-.6-1.2-1.1-1.5-.5-.2-1.2,0-1.7-.2-.5-.2-.9-.7-1.4-.9-.5-.2-1.1-.3-1.7-.4-.6-.2-1-.7-1.6-.8-.6-.2-1.5.7-2.1.7-.6,0-1.1,1-1.6,1-.6,0-1.1,0-1.7.2s-.7.6-1.3.8c-.6.2-.9.8-1.4,1.1-.5.2-1.2.2-1.6.5-.4.3-.7.9-1.1,1.3-.4.4-.4,1-.8,1.4-.3.4-1.1.4-1.4.8-.3.4-.9.5-1.2,1-.3.5-.6.9-.8,1.3-.2.5-.6.9-.8,1.3-.2.5.1,1.1,0,1.5-.1.5-.2,1-.3,1.4-.1.4-.9.7-1.1,1.2-.1.5,0,1,0,1.5-.1.5-.5.9-.6,1.4-.1.5.3,1.1.2,1.5s-1.2.7-1.3,1.2c-.1.5-.6.9-.7,1.3-.1.5-.4.9-.5,1.4,0,.5,0,1.1,0,1.6,0,.5.3,1.1.3,1.6,0,.5-.4,1-.4,1.5,0,.5.2,1,.2,1.5,0,.5-.4,1-.4,1.6,0,.5,0,1.1,0,1.6,0,.5-.3,1.2-.1,1.7.1.5.3,1,.4,1.6.1.5.3,1.1.4,1.6.1.5.4.9.6,1.4.1.5.4,1,.6,1.5.1.5.9.8,1,1.3v.2c0,.2.6,2,.7,2.2.1.3.1.5.2.7s.3.4.4.7c.1.3.9,1.3,1,1.5.4.5.9.9,1.3,1.2.2.2.4.4.7.7.3.2.6.4.8.6.6.4.9.9,1.4,1.1.7.3,1.2,0,1.7.2.5.1,1.1.2,1.7.3.3.1.8,1.1,1.6,1.4.6.3,1.4-.2,2,0,.6.2,1,.1,1.5.2.7.2,1.4.3,1.8.3.7,0,1.2-.3,1.7-.4.6,0,1.2.6,1.6.4.5-.1,1.1.2,1.7,0,.5,0,.9-.9,1.5-1.1.4,0,.8.3,1.2.2.4,0,.7-.6,1.1-.7.7-.1,1.3-.3,2-.6.5-.1,1-.2,1.5-.4.5-.2.9-.5,1.4-.7s1.1-.2,1.5-.4c.5-.3.7-.9,1.2-1.2.4-.3.8-.8,1.2-1.1.4-.3,1.1-.3,1.5-.7.4-.3.9-.5,1.3-.9.3-.4.5-.9.9-1.3.3-.4,1-.4,1.4-.8.3-.4.4-1,.7-1.3.3-.4.8-.6,1.1-1,.3-.4.2-1.1.5-1.4.3-.4.5-.8.8-1.2.3-.4.4-.8.7-1.2.3-.4.6-.7.9-1.1.2-.4.8-.6,1-1,0-.1.1-.3.1-.5.4,0,.8,0,.9.3.3.3.3.9.6,1.2.3.3.2,1,.5,1.3.3.3.9.3,1.2.6.3.3.5.7.8,1,.3.3.6.2.8.5.3.3.7.5,1,.8.3.3,0,.4.2.8.3.3.5.7.8,1.1.3.4-.5,1.4-.2,1.8.3.4.2,1,.4,1.3.3.4.2.9.4,1.2.2.3,1,.4,1.2.8.2.3-.4,1.1-.2,1.5.2.3,2,.3,2.2.8.1.3-.1,1,.1,1.4.2.4.9.5,1.1.9.2.4.8.8.9,1.1.1.4,0,.9.3,1.3.2.4,0,1,.3,1.4.2.4.6.8.8,1.2.2.4.4,1.2.5,1.7.2.4.7,1.6,1,2h0c.2.5.7.9.9,1.2.4.6.9.9,1.2,1.1.4.5.8,1.3,1.2,1.7.5.4,1,0,1.4.3.5.2.9.4,1.3.6.4.1.8.2,1.2.2.4,0,.6-.4.9-.6.3-.1.8,0,1-.3.3-.3,1.2.2,1.3-.2.2-.4-.5-1.6-.5-2.1s.8-.7.7-1.3c-.1-.6-1.4-1.4-1.6-2-.2-.6,0-1.1-.3-1.8-.3-.6-.5-1-.9-1.6h0c-.3-.4-.6-.8-.9-1.2-.3-.4-.6-.9-.8-1.2-.3-.4-.3-.8-.6-1.1-.4-.4-.9-.3-1.2-.6-.3-.3-.7-.6-1.1-.9-.2-.2.2-1.2,0-1.8-.2-.4-1-.6-1.2-1.1-.2-.4-.5-.7-.6-1.1-.3-.6-.5-1.1-.7-1.3-.3-.5-.9-.7-1.1-1-.4-.4,0-1.2-.3-1.5-.3-.3-.2-.9-.6-1.4-.3-.3-1.2-.3-1.5-.8-.1-.3,0-.8-.1-1.1-.2-.3-.7-.4-.9-.7-.3-.5-.6-1-1-1.5-.2-.4-.4-.8-.7-1.2-.2-.4-.6-.7-.9-1-.2-.4-.3-.9-.5-1.3-.3-.4-.9-.5-1.1-.8-.3-.4-.7-.6-.9-1s-.2-1-.5-1.3c-.3-.3-.4-.9-.6-1.2-.3-.3-.7-.5-1-.8-.3-.3-.2-1-.5-1.3-.2-.2-.4-.3-.6-.5.2-.1.4-.2.5-.4.2-.4.6-.7.8-1,.2-.4.5-.7.7-1.1.2-.3,0-1,.2-1.4.2-.4.9-.5,1.1-.8s.1-.8.3-1.2c.2-.3.1-.8.3-1.2.2-.4,1.1-.3,1.3-.7.2-.3.5-.5.7-.8.2-.3,0-.9.2-1.2.2-.3,1-.3,1.2-.6.2-.3,0-.9.3-1.2.3-.3,1.1,0,1.4-.2.3-.2.2-.9.5-1.1.3-.2.7-.1,1.1-.3.3-.2.6-.4.9-.5.3-.1.8.2,1.1,0,.3,0,.4-1,.8-1.1.3,0,.4-1,.7-1,.4,0,.7,0,1,0,.3,0,.5-.4.8-.4s.7-.4,1.1-.4c.4,0,.7.5,1,.5.3,0,.7-.2,1.1-.2.3,0,.7-.3,1.1-.2.4,0,.5.8.8.8.3.1.4.6.7.7.3.1.6.3.9.5.3.1.5.5.8.6.3.2.8,0,1.1.1.3.2.7.3.9.6.3.2,0,1,.3,1.2.2.2.7.3,1,.6.2.3.3.8.4,1.1.2.3.9.4,1.1.7s-.5,1.1-.4,1.5c.1.3,0,.8,0,1.2.1.3,0,.7.1,1.1,0,.3.4.7.4,1.1,0,.3.6.7.7,1,0,.4-.1.8-.1,1.2,0,.4.3.7.4,1.1,0,.4-.4.8-.3,1.2,0,.4,0,.8,0,1.2,0,.4-.4.8-.4,1.2,0,.4.1.8,0,1.2,0,.4,0,.8,0,1.2,0,.4,0,.8,0,1.1-.1.4,0,.8-.1,1.2-.1.4.3.9.1,1.3v.2c-.2.2-.9,1.4-1,1.5-.1.2-.2.3-.3.5s0,.4-.2.6c0,.2-.4,1.1-.5,1.3l8.3,2.5-8.3-2.5-.4,1.4c-.1.3,0,.8-.1,1.1,0,.4-.3.8-.3,1.1,0,.5,0,.9,0,1.3,0,.4,0,.6.1,1,.1.4.4,1.3.7,1.6.2.3.9.1,1.3.3.3.2.6.4,1,.5.4.1.7.2,1.1.1.4,0,.7,0,1.1,0,.4-.2.4,0,.8-.2.4-.2.5-.4.8-.6.3-.3.6-.3.9-.6s.5-1.2.8-1.5c.3-.3.4-1.1.6-1.5.3-.4.5-.9.6-1.3h0c0-.2.1-.7.2-.9,0-.2,0-.5,0-.8,0-.2.1-1.2.1-1.4,0-.2.6-.3.7-.6,0-.2-.4-.6-.4-.8,0-.1,0-.3-.1-.4,0-.2,0-.4,0-.6,0-.5-.4-1-.3-1.5,0-.5.5-.9.5-1.4,0-.5,0-.9,0-1.4,0-.5-.3-1-.2-1.4,0-.5-.2-.9-.2-1.4,0-.5,1-1,1-1.5h-.1ZM215.5,47.7c-.2.4-.9.6-1.1,1-.2.4-.5.8-.7,1.1-.2.4,1.3,1.8,1.1,2.2s-.8.5-1.1.9c-.3.3.2.9-.1,1.3s-.6.7-.9,1.1c-.3.3-1.2,0-1.4.3-.3.3-.5.7-.7,1-.3.3-.2.9-.4,1.2-.3.3-.1.9-.4,1.2-.3.3-.9.2-1.2.5-.3.3-.9.2-1.1.5-.3.3,0,1.1-.3,1.4-.3.3-.8.3-1.1.5-.3.2-.8.1-1.1.3-.3.2-.3.9-.6,1.1-.3.2-.7.3-1,.5-.3.2-.3.5-.6.7-.4.2-.6.6-1,.8-.4.2-.4-.2-.7,0-.4.2-.8.3-1.1.4-.4.2-1.1-.9-1.5-.8-.4.1-.9-.2-1.2-.1-.4.1-.8-.2-1.1-.1-.4,0-.7.7-1.1.7-.4,0-.7-.9-1.1-.9-.3,0-1.1,1.5-1.6,1.5-.3-.1-.6-.7-1-.7-.4,0-.8.4-1.1.3-.4,0-.9,0-1.1-.1-.3-.2-.5-.6-.8-.7-.3-.2-.4-.7-.6-.8-.2-.2-.5-.3-.8-.4-.2-.2-.3-.8-.5-.9-.2-.3-.8-1.1-1-1.4-.1-.1-.4-.4-.5-.5-.1-.1-.4-.2-.5-.3-.1-.1-.7-.6-.8-.7-.1-.2.3-.6.2-.7-.1-.1-.6,0-.7-.2,0,0-.2-.1-.3-.2-.1-.1-.2-.2-.3-.3-.2-.3-.8-.4-.9-.8-.2-.3,0-.8-.1-1.2-.1-.3-.4-.6-.5-1-.1-.3-.5-.6-.6-1-.1-.3-.4-.7-.5-1.1-.1-.4.9-1,.9-1.4,0-.4.5-.8.5-1.2,0-.4-.7-.8-.7-1.2s.6-.8.6-1.2c0-.4,0-.8,0-1.2,0-.4.2-.8.3-1.2s.1-.8.2-1.2-.4-.9-.3-1.3c0-.4.2-.8.3-1.2,0-.4.1-.9.2-1.3,0-.4.4-.8.4-1.2,0-.4.5-.8.6-1.2,0-.4-.8-1-.7-1.4.1-.4.6-.7.8-1.1.1-.4.6-.6.7-1,.1-.3-.1-.9,0-1.2s1.3-.4,1.5-.7c.2-.3,0-.8.2-1.1.2-.3.6-.5.8-.7.2-.3.3-.7.5-1,.2-.3.6-.4.8-.6.2-.2.6-.3.9-.5.3-.2.4-.6.7-.7.3-.1.5-.4.8-.4s.6-.4.9-.4c.3,0,.6,0,.9,0,.3,0,.6-.2.9-.1s.4.9.7,1c.3,0,.8-.5,1.1-.4.3.1.6.4.8.5.3.1.6.4.9.5.3.2.3.9.6,1s1.2-.5,1.5-.2c.3.2.2,1,.5,1.2.3.2.5.5.8.8.3.3.3.8.6,1.1s1.3-.2,1.6,0c.3.3.4.8.7,1.1.3.3.5.7.9.9.3.3.4.9.7,1.2.3.3.9.2,1.2.4.3.3.3.9.6,1.2.3.3,1.3-.2,1.6,0,.3.3,0,1.3.2,1.6.3.3.8.9,1.1,1.2.3.3.4.7.7,1,.3.3.7.5,1,.8.3.4.2,1,.5,1.4.3.4.5.8.8,1.1s2.2-.5,2.5-.2c.3.4.2,1,.5,1.3.3.4,1,.2,1.2.6,0,0,.1.2.2.3,0,.2,0,.5-.2.7h0Z"/>
          <g class="st1">
            <text class="st2" transform="translate(110.6 60.5)"><tspan x="0" y="0">:</tspan></text>
          </g>
        </g>
        <g>
          <g>
            <path class="st7" d="M40.4,10.8l1.4.4c.3.1.8.1,1.1.1.4,0,.8.3,1.1.4.5,0,.9,0,1.3,0,.4,0,.6,0,1-.1.4-.1,1.3-.4,1.6-.7.3-.2.1-.9.3-1.3.2-.3.4-.6.5-1,.1-.4.2-.7.1-1.1,0-.4,0-.7-.1-1.1-.2-.4,0-.4-.2-.8-.2-.3-.4-.5-.6-.8s-.3-.6-.6-.9c-.3-.3-1.2-.5-1.5-.8-.3-.3-1.1-.3-1.5-.6-.4-.3-.9-.4-1.3-.6h0c-.2-.1-.7-.2-.9-.2-.2,0-.5,0-.7,0-.2,0-1.2,0-1.4-.1-.2,0-.4-.6-.6-.7-.2,0-.6.4-.8.4-.1,0-.3,0-.4.1-.2,0-.4,0-.6,0-.5,0-1,.4-1.5.3-.5,0-.9-.5-1.4-.5-.5,0-.9,0-1.4,0-.5,0-.9.3-1.4.2-.5,0-.9.2-1.4.2-.5,0-1-1-1.5-1-.5,0-1-.5-1.5-.5-.5,0-1,.7-1.5.7-.5,0-1.1-.5-1.6-.4-.5,0-1,.3-1.6.4-.5,0-1.1,0-1.6.2-.5.1-1.1.3-1.6.4-.5.2-.9.8-1.4,1-.5.2-1,.3-1.5.6-.5.2-.9.5-1.4.8-.4.3-1.1.4-1.5.8-.4.3-1.1.4-1.5.8-.4.4,0,1.4-.4,1.8-.4.4-1.1.5-1.4.9-.4.4-1,.6-1.3,1-.3.4-.3,1.1-.6,1.6-.3.4-1.6.6-1.9,1.2-.2.5-.1,1.2-.3,1.7-.2.5-.6,1-.8,1.6-.2.6,0,1.2-.2,1.7,0,.6-.3,1.1-.3,1.7,0,.6-.2,1.1-.2,1.7,0,.6.3,1.1.4,1.6,0,.5.2,1.1.3,1.6,0,.6.4,1.1.6,1.6,0,.5.2,1,.3,1.5.1.5.5.9.7,1.4.2.5-.4,1.2-.2,1.7.2.5,1.1.7,1.3,1.1.2.5.3,1,.6,1.4s.5.9.8,1.3c.3.4.1,1.1.5,1.6.3.4,1.5.1,1.8.5.3.4.2,1.2.6,1.5.4.3.7.7,1,1.1.4.3.5,1,.9,1.3.4.3,1.4-.2,1.8.1.4.3.6.9,1,1.1s.8.6,1.2.8c.4.2.7.9,1.2,1,.4.2,1,0,1.4,0,0,0,.1,0,.2.2,0,0,0,0,0,0-.4.3-.3,1-.7,1.3-.4.3-.5.7-.9,1s-.3,1.2-.6,1.5c-.4.3-.8.5-1.1.8-.4.3-.7.6-1,.9s-1.1.2-1.4.5c-.3.3-1.1.2-1.4.4-.3.3-.8.4-1.1.8-.3.3-.8.5-1.1.8-.3.3-.3,1-.7,1.3-.3.3-1.1.3-1.4.6-.3.3-.4.8-.7,1.2-.3.4-.4.9-.7,1.3-.3.4-1.3.3-1.6.7-.3.4-.6.6-.9,1-.3.4,0,1.1-.3,1.5-.3.4-1.1.6-1.4,1.1-.3.5,0,1.1-.3,1.6-.2.5-1.2.6-1.5,1.2-.2.5,0,1.2-.2,1.7-.2.5-.7.9-.9,1.4-.2.5-.2,1.1-.4,1.7-.2.6-.7,1-.8,1.6-.2.6.7,1.5.7,2.1,0,.6,1,1.1.9,1.6,0,.6.1,1.1.2,1.7.1.6.6.8.8,1.3.2.6.8.9,1.1,1.4.2.5.2,1.2.5,1.6.3.5.9.7,1.3,1.1.4.4,1,.4,1.4.8.4.3.4,1.1.8,1.4.4.3.5,1,.9,1.2.5.2.9.6,1.3.8.5.2.9.6,1.3.8.5.2,1.1-.1,1.5,0,.5.2.9.2,1.4.3.4.1.8.9,1.2,1.1s1,0,1.4,0c.5.1.9.5,1.4.6.5.1,1.1-.3,1.5-.2.5.1.7,1.2,1.2,1.3.5,0,.9.6,1.4.7.5.1.9.4,1.4.5.5,0,1.1,0,1.6,0,.5,0,1.1-.3,1.5-.3.5,0,1,.3,1.5.4s1-.2,1.5-.2c.5,0,1,.4,1.6.4.5,0,1.1,0,1.6,0s1.2.3,1.7.1c.6-.1,1-.3,1.6-.4.5-.2,1.1-.3,1.6-.4.5-.1.9-.4,1.4-.6.5-.1.9-.4,1.4-.6.5-.2.9-.8,1.3-1h.2c.2,0,2-.5,2.2-.6s.5-.1.7-.2.5-.3.7-.4c.3-.1,1.3-.9,1.5-1.1.5-.4.9-.9,1.3-1.3.2-.2.4-.4.7-.7.2-.3.5-.6.6-.8.4-.6.9-.9,1.1-1.4.3-.7,0-1.2.2-1.7.1-.5.2-1.1.3-1.7.1-.3,1.1-.8,1.4-1.6.3-.6-.2-1.4,0-2,.2-.6.1-1,.2-1.5.2-.7.3-1.4.3-1.8,0-.7-.3-1.2-.4-1.7-.1-.6.6-1.2.4-1.7-.1-.5.2-1.1,0-1.7,0-.5-1-.9-1-1.5,0-.4.3-.8.2-1.2,0-.4-.6-.7-.7-1.1-.1-.7-.3-1.3-.6-2-.1-.5-.2-1-.4-1.5-.2-.5-.5-.9-.7-1.4-.2-.5-.2-1-.4-1.5-.3-.5-.9-.7-1.2-1.2-.3-.5-.8-.8-1.1-1.2-.3-.5-.3-1.1-.7-1.5-.3-.4-.5-1-.9-1.3-.4-.3-.9-.5-1.3-.8-.4-.3-.4-1-.8-1.3-.4-.3-1-.4-1.3-.7s-.6-.8-1-1.1c-.4-.3-1.1-.2-1.4-.5-.4-.3-.8-.5-1.2-.8-.4-.3-.8-.4-1.2-.7-.4-.3-.7-.6-1.1-.9-.4-.2-.6-.8-1-1-.1,0-.3,0-.5,0,0-.3,0-.8.3-1,.3-.3.9-.3,1.2-.5.3-.3,1-.2,1.3-.5.3-.3.3-1,.6-1.2.3-.3.7-.5,1-.8.3-.3.2-.6.5-.8.3-.3.5-.7.8-1,.3-.3.4,0,.8-.2.3-.3.7-.5,1.1-.8.4-.3,1.4.5,1.7.2.4-.3,1-.2,1.3-.4.4-.3.9-.2,1.2-.4.3-.2.4-1,.8-1.2.4-.2,1.1.4,1.5.2.3-.2.3-2,.8-2.2.3-.1,1,0,1.4-.1.4-.2.5-.9.9-1.1.4-.3.8-.8,1.1-.9.4-.1.9,0,1.3-.3.4-.2,1,0,1.4-.3.4-.2.8-.5,1.2-.8.4-.2,1.2-.4,1.7-.5.4-.2,1.6-.7,2-1h0c.5-.3.9-.7,1.2-.9.6-.4.8-1,1.1-1.2.5-.4,1.3-.8,1.7-1.3.4-.5,0-1,.2-1.4.2-.5.4-.9.6-1.3.1-.4.2-.8.2-1.2s-.4-.6-.6-.9c-.2-.4,0-.8-.3-1s.2-1.2-.2-1.3c-.4-.2-1.6.5-2.1.5s-.7-.8-1.3-.7c-.6.1-1.4,1.4-2,1.6-.6.2-1.2,0-1.8.3-.6.3-1,.5-1.6.9h0c-.4.3-.9.6-1.2.9-.4.3-.9.6-1.2.8-.4.3-.8.3-1.1.6-.4.4-.3.9-.6,1.2-.3.3-.6.7-.9,1-.2.2-1.2-.2-1.8,0-.4.2-.6,1-1.1,1.2-.5.2-.7.5-1.1.7-.6.2-1.1.5-1.3.7-.5.3-.7.8-1,1.1-.5.4-1.2,0-1.5.3-.3.3-.9.3-1.4.6-.3.2-.3,1.2-.8,1.5-.3.1-.8,0-1.1.1-.3.2-.4.7-.7.9-.5.3-1,.6-1.5,1-.4.2-.8.4-1.2.7-.4.2-.7.6-1,.9-.4.3-.9.3-1.3.5-.4.3-.5.9-.8,1.1-.4.3-.6.7-1,1s-1,.2-1.3.5c-.3.3-.9.4-1.2.6-.3.3-.5.7-.9,1-.3.3-1,.2-1.3.5-.2.2-.3.4-.5.6-.1-.2-.2-.4-.4-.5-.4-.2-.6-.5-1-.8-.4-.2-.7-.5-1-.7-.4-.2-1,0-1.4-.2-.4-.2-.5-.9-.9-1.1-.4-.2-.8-.1-1.2-.3-.3-.2-.8-.1-1.2-.3-.4-.2-.3-1.2-.7-1.3-.4-.2-.4-.5-.8-.7-.3-.2-.9,0-1.2-.2-.4-.2-.2-1-.6-1.2-.3-.2-.9,0-1.2-.3-.3-.3,0-1.1-.2-1.4-.2-.3-.9-.2-1.1-.5-.2-.3-.1-.7-.3-1.1-.2-.3-.4-.6-.6-.9-.1-.3.2-.8,0-1.1,0-.3-1.1-.4-1.1-.8,0-.3-1-.4-1-.7,0-.4,0-.7,0-1,0-.4-.4-.5-.4-.8,0-.3-.4-.7-.4-1.1,0-.4.5-.7.5-1,0-.3-.2-.7-.2-1,0-.3-.3-.7-.2-1.1,0-.4.8-.5.8-.8.1-.3.6-.4.8-.7.1-.3.3-.6.5-.9.1-.3.5-.5.6-.8.2-.3,0-.8.1-1.1.2-.3.3-.7.6-.9.2-.3,1,0,1.2-.3.2-.2.3-.7.5-1,.3-.2.8-.3,1.1-.4.3-.2.4-.9.7-1.1.4-.2,1.1.5,1.5.4.4-.1.8,0,1.2,0,.4-.1.7,0,1.1-.1.4,0,.7-.4,1.1-.5.4,0,.6-.6,1-.7.4,0,.8.1,1.2.1.4,0,.7-.3,1.1-.4.4,0,.8.4,1.2.3.4,0,.8,0,1.2,0,.4,0,.8.4,1.2.3.4,0,.8,0,1.2,0,.4,0,.8,0,1.2,0,.4,0,.8,0,1.1,0,.4.1.8,0,1.2.2.3.1.9-.3,1.3-.2h.2c.2.2,1.4.9,1.5,1,.2.1.3.2.5.3.2,0,.4,0,.6.2.2.1,1.1.4,1.3.5M35.8,49c.3.3,0,1.2.3,1.5.3.3.7.5,1,.7.3.2.9.2,1.2.4.3.3.9.1,1.2.4.3.3.2.9.5,1.2.3.3.2.9.5,1.1.3.3,1.1,0,1.4.3.3.3.3.8.5,1.1.2.3.1.8.3,1.1.2.3.9.3,1.1.6.2.3.3.7.6,1,.2.3.5.3.7.6.2.3.6.6.8,1,.2.4-.2.4,0,.8.2.4.3.8.4,1.2.2.4-.9,1.2-.8,1.5.1.4-.2.9-.1,1.2.1.4-.2.8-.1,1.2,0,.3.7.7.7,1.1,0,.3-.9.7-.9,1.1,0,.3,1.5,1.1,1.5,1.6-.1.3-.7.6-.7,1,0,.3.4.8.3,1.1,0,.4,0,.9-.1,1.1-.2.3-.5.5-.7.8-.2.3-.7.4-.8.6-.2.2-.3.5-.4.8-.2.2-.7.3-.9.5-.3.2-1.1.8-1.4,1-.1,0-.4.4-.5.5-.1.1-.1.4-.3.5-.2.1-.6.7-.7.8-.2,0-.6-.3-.7-.2-.1.1,0,.6-.2.8,0,0-.1.2-.2.3,0,.1-.2.2-.3.3-.3.2-.4.8-.8,1s-.8,0-1.2,0c-.3.1-.6.4-1,.5-.3.1-.6.5-1,.6-.3.1-.7.4-1.1.5-.4,0-1-.9-1.4-.9-.4,0-.8-.5-1.2-.5s-.8.7-1.2.7c-.4,0-.8-.6-1.2-.6-.4,0-.8,0-1.2,0-.4,0-.8-.2-1.2-.3s-.8-.2-1.2-.2c-.4,0-.9.4-1.4.3-.4,0-.8-.2-1.2-.3-.4,0-.9-.1-1.3-.2-.4,0-.8-.4-1.2-.4-.4,0-.8-.5-1.2-.6-.4,0-1,.8-1.4.7s-.7-.6-1.1-.8c-.4-.1-.6-.6-1-.7-.4-.1-.9.1-1.2,0-.4-.2-.4-1.3-.7-1.5-.3-.2-.8,0-1.1-.2-.3-.2-.4-.6-.7-.8-.3-.2-.7-.3-1-.5-.3-.2-.4-.6-.6-.8-.2-.2-.3-.6-.5-.9-.2-.3-.6-.4-.7-.7-.1-.3-.3-.5-.4-.8,0-.3-.4-.6-.4-.9,0-.3,0-.6,0-.9,0-.3-.2-.6-.1-.9,0-.3.9-.4,1.1-.7,0-.3-.5-.8-.4-1.1.1-.3.4-.6.5-.8.1-.3.4-.6.5-.8.2-.3.8-.3,1-.6.2-.3-.5-1.2-.2-1.5.2-.3,1-.2,1.2-.5.2-.3.5-.5.8-.8.3-.3.8-.3,1.1-.6.3-.3-.2-1.3.1-1.6.3-.3.8-.3,1.1-.6.3-.3.7-.5.9-.9.3-.3.9-.4,1.2-.7.3-.3.2-.9.4-1.2.3-.3.9-.3,1.2-.6.3-.3-.2-1.3,0-1.6.3-.3,1.3,0,1.6-.2s.9-.8,1.2-1.1c.3-.3.7-.5,1-.7.3-.3.5-.7.8-1,.4-.3,1-.2,1.4-.5.4-.3.7-.5,1.1-.8.4-.3-.5-2.2-.1-2.5.4-.3,1-.2,1.3-.5.4-.2.2-1,.6-1.2,0,0,.2-.1.3-.2.2,0,.5,0,.7.2.4.2.6.9,1,1.1.4.2.8.5,1.1.7.4.2,1.8-1.3,2.2-1,.4.3.5.8.9,1.1.4.3,1-.2,1.3.1.3.3.7.5,1.1.9h0Z"/>
            <path class="st6" d="M40.4,10.8l1.4.4c.3.1.8.1,1.1.1.4,0,.8.3,1.1.4.5,0,.9,0,1.3,0,.4,0,.6,0,1-.1.4-.1,1.3-.4,1.6-.7.3-.2.1-.9.3-1.3.2-.3.4-.6.5-1,.1-.4.2-.7.1-1.1,0-.4,0-.7-.1-1.1-.2-.4,0-.4-.2-.8-.2-.3-.4-.5-.6-.8s-.3-.6-.6-.9c-.3-.3-1.2-.5-1.5-.8-.3-.3-1.1-.3-1.5-.6-.4-.3-.9-.4-1.3-.6h0c-.2-.1-.7-.2-.9-.2-.2,0-.5,0-.7,0-.2,0-1.2,0-1.4-.1-.2,0-.4-.6-.6-.7-.2,0-.6.4-.8.4-.1,0-.3,0-.4.1-.2,0-.4,0-.6,0-.5,0-1,.4-1.5.3-.5,0-.9-.5-1.4-.5-.5,0-.9,0-1.4,0-.5,0-.9.3-1.4.2-.5,0-.9.2-1.4.2-.5,0-1-1-1.5-1-.5,0-1-.5-1.5-.5-.5,0-1,.7-1.5.7-.5,0-1.1-.5-1.6-.4-.5,0-1,.3-1.6.4-.5,0-1.1,0-1.6.2-.5.1-1.1.3-1.6.4-.5.2-.9.8-1.4,1-.5.2-1,.3-1.5.6-.5.2-.9.5-1.4.8-.4.3-1.1.4-1.5.8-.4.3-1.1.4-1.5.8-.4.4,0,1.4-.4,1.8-.4.4-1.1.5-1.4.9-.4.4-1,.6-1.3,1-.3.4-.3,1.1-.6,1.6-.3.4-1.6.6-1.9,1.2-.2.5-.1,1.2-.3,1.7-.2.5-.6,1-.8,1.6-.2.6,0,1.2-.2,1.7,0,.6-.3,1.1-.3,1.7,0,.6-.2,1.1-.2,1.7,0,.6.3,1.1.4,1.6,0,.5.2,1.1.3,1.6,0,.6.4,1.1.6,1.6,0,.5.2,1,.3,1.5.1.5.5.9.7,1.4.2.5-.4,1.2-.2,1.7.2.5,1.1.7,1.3,1.1.2.5.3,1,.6,1.4s.5.9.8,1.3c.3.4.1,1.1.5,1.6.3.4,1.5.1,1.8.5.3.4.2,1.2.6,1.5.4.3.7.7,1,1.1.4.3.5,1,.9,1.3.4.3,1.4-.2,1.8.1.4.3.6.9,1,1.1s.8.6,1.2.8c.4.2.7.9,1.2,1,.4.2,1,0,1.4,0,0,0,.1,0,.2.2,0,0,0,0,0,0-.4.3-.3,1-.7,1.3-.4.3-.5.7-.9,1s-.3,1.2-.6,1.5c-.4.3-.8.5-1.1.8-.4.3-.7.6-1,.9s-1.1.2-1.4.5c-.3.3-1.1.2-1.4.4-.3.3-.8.4-1.1.8-.3.3-.8.5-1.1.8-.3.3-.3,1-.7,1.3-.3.3-1.1.3-1.4.6-.3.3-.4.8-.7,1.2-.3.4-.4.9-.7,1.3-.3.4-1.3.3-1.6.7-.3.4-.6.6-.9,1-.3.4,0,1.1-.3,1.5-.3.4-1.1.6-1.4,1.1-.3.5,0,1.1-.3,1.6-.2.5-1.2.6-1.5,1.2-.2.5,0,1.2-.2,1.7-.2.5-.7.9-.9,1.4-.2.5-.2,1.1-.4,1.7-.2.6-.7,1-.8,1.6-.2.6.7,1.5.7,2.1,0,.6,1,1.1.9,1.6,0,.6.1,1.1.2,1.7.1.6.6.8.8,1.3.2.6.8.9,1.1,1.4.2.5.2,1.2.5,1.6.3.5.9.7,1.3,1.1.4.4,1,.4,1.4.8.4.3.4,1.1.8,1.4.4.3.5,1,.9,1.2.5.2.9.6,1.3.8.5.2.9.6,1.3.8.5.2,1.1-.1,1.5,0,.5.2.9.2,1.4.3.4.1.8.9,1.2,1.1s1,0,1.4,0c.5.1.9.5,1.4.6.5.1,1.1-.3,1.5-.2.5.1.7,1.2,1.2,1.3.5,0,.9.6,1.4.7.5.1.9.4,1.4.5.5,0,1.1,0,1.6,0,.5,0,1.1-.3,1.5-.3.5,0,1,.3,1.5.4s1-.2,1.5-.2c.5,0,1,.4,1.6.4.5,0,1.1,0,1.6,0s1.2.3,1.7.1c.6-.1,1-.3,1.6-.4.5-.2,1.1-.3,1.6-.4.5-.1.9-.4,1.4-.6.5-.1.9-.4,1.4-.6.5-.2.9-.8,1.3-1h.2c.2,0,2-.5,2.2-.6s.5-.1.7-.2.5-.3.7-.4c.3-.1,1.3-.9,1.5-1.1.5-.4.9-.9,1.3-1.3.2-.2.4-.4.7-.7.2-.3.5-.6.6-.8.4-.6.9-.9,1.1-1.4.3-.7,0-1.2.2-1.7.1-.5.2-1.1.3-1.7.1-.3,1.1-.8,1.4-1.6.3-.6-.2-1.4,0-2,.2-.6.1-1,.2-1.5.2-.7.3-1.4.3-1.8,0-.7-.3-1.2-.4-1.7-.1-.6.6-1.2.4-1.7-.1-.5.2-1.1,0-1.7,0-.5-1-.9-1-1.5,0-.4.3-.8.2-1.2,0-.4-.6-.7-.7-1.1-.1-.7-.3-1.3-.6-2-.1-.5-.2-1-.4-1.5-.2-.5-.5-.9-.7-1.4-.2-.5-.2-1-.4-1.5-.3-.5-.9-.7-1.2-1.2-.3-.5-.8-.8-1.1-1.2-.3-.5-.3-1.1-.7-1.5-.3-.4-.5-1-.9-1.3-.4-.3-.9-.5-1.3-.8-.4-.3-.4-1-.8-1.3-.4-.3-1-.4-1.3-.7s-.6-.8-1-1.1c-.4-.3-1.1-.2-1.4-.5-.4-.3-.8-.5-1.2-.8-.4-.3-.8-.4-1.2-.7-.4-.3-.7-.6-1.1-.9-.4-.2-.6-.8-1-1-.1,0-.3,0-.5,0,0-.3,0-.8.3-1,.3-.3.9-.3,1.2-.5.3-.3,1-.2,1.3-.5.3-.3.3-1,.6-1.2.3-.3.7-.5,1-.8.3-.3.2-.6.5-.8.3-.3.5-.7.8-1,.3-.3.4,0,.8-.2.3-.3.7-.5,1.1-.8.4-.3,1.4.5,1.7.2.4-.3,1-.2,1.3-.4.4-.3.9-.2,1.2-.4.3-.2.4-1,.8-1.2.4-.2,1.1.4,1.5.2.3-.2.3-2,.8-2.2.3-.1,1,0,1.4-.1.4-.2.5-.9.9-1.1.4-.3.8-.8,1.1-.9.4-.1.9,0,1.3-.3.4-.2,1,0,1.4-.3.4-.2.8-.5,1.2-.8.4-.2,1.2-.4,1.7-.5.4-.2,1.6-.7,2-1h0c.5-.3.9-.7,1.2-.9.6-.4.8-1,1.1-1.2.5-.4,1.3-.8,1.7-1.3.4-.5,0-1,.2-1.4.2-.5.4-.9.6-1.3.1-.4.2-.8.2-1.2s-.4-.6-.6-.9c-.2-.4,0-.8-.3-1s.2-1.2-.2-1.3c-.4-.2-1.6.5-2.1.5s-.7-.8-1.3-.7c-.6.1-1.4,1.4-2,1.6-.6.2-1.2,0-1.8.3-.6.3-1,.5-1.6.9h0c-.4.3-.9.6-1.2.9-.4.3-.9.6-1.2.8-.4.3-.8.3-1.1.6-.4.4-.3.9-.6,1.2-.3.3-.6.7-.9,1-.2.2-1.2-.2-1.8,0-.4.2-.6,1-1.1,1.2-.5.2-.7.5-1.1.7-.6.2-1.1.5-1.3.7-.5.3-.7.8-1,1.1-.5.4-1.2,0-1.5.3-.3.3-.9.3-1.4.6-.3.2-.3,1.2-.8,1.5-.3.1-.8,0-1.1.1-.3.2-.4.7-.7.9-.5.3-1,.6-1.5,1-.4.2-.8.4-1.2.7-.4.2-.7.6-1,.9-.4.3-.9.3-1.3.5-.4.3-.5.9-.8,1.1-.4.3-.6.7-1,1s-1,.2-1.3.5c-.3.3-.9.4-1.2.6-.3.3-.5.7-.9,1-.3.3-1,.2-1.3.5-.2.2-.3.4-.5.6-.1-.2-.2-.4-.4-.5-.4-.2-.6-.5-1-.8-.4-.2-.7-.5-1-.7-.4-.2-1,0-1.4-.2-.4-.2-.5-.9-.9-1.1-.4-.2-.8-.1-1.2-.3-.3-.2-.8-.1-1.2-.3-.4-.2-.3-1.2-.7-1.3-.4-.2-.4-.5-.8-.7-.3-.2-.9,0-1.2-.2-.4-.2-.2-1-.6-1.2-.3-.2-.9,0-1.2-.3-.3-.3,0-1.1-.2-1.4-.2-.3-.9-.2-1.1-.5-.2-.3-.1-.7-.3-1.1-.2-.3-.4-.6-.6-.9-.1-.3.2-.8,0-1.1,0-.3-1.1-.4-1.1-.8,0-.3-1-.4-1-.7,0-.4,0-.7,0-1,0-.4-.4-.5-.4-.8,0-.3-.4-.7-.4-1.1,0-.4.5-.7.5-1,0-.3-.2-.7-.2-1,0-.3-.3-.7-.2-1.1,0-.4.8-.5.8-.8.1-.3.6-.4.8-.7.1-.3.3-.6.5-.9.1-.3.5-.5.6-.8.2-.3,0-.8.1-1.1.2-.3.3-.7.6-.9.2-.3,1,0,1.2-.3.2-.2.3-.7.5-1,.3-.2.8-.3,1.1-.4.3-.2.4-.9.7-1.1.4-.2,1.1.5,1.5.4.4-.1.8,0,1.2,0,.4-.1.7,0,1.1-.1.4,0,.7-.4,1.1-.5.4,0,.6-.6,1-.7.4,0,.8.1,1.2.1.4,0,.7-.3,1.1-.4.4,0,.8.4,1.2.3.4,0,.8,0,1.2,0,.4,0,.8.4,1.2.3.4,0,.8,0,1.2,0,.4,0,.8,0,1.2,0,.4,0,.8,0,1.1,0,.4.1.8,0,1.2.2.3.1.9-.3,1.3-.2h.2c.2.2,1.4.9,1.5,1,.2.1.3.2.5.3.2,0,.4,0,.6.2.2.1,1.1.4,1.3.5M35.8,49c.3.3,0,1.2.3,1.5.3.3.7.5,1,.7.3.2.9.2,1.2.4.3.3.9.1,1.2.4.3.3.2.9.5,1.2.3.3.2.9.5,1.1.3.3,1.1,0,1.4.3.3.3.3.8.5,1.1.2.3.1.8.3,1.1.2.3.9.3,1.1.6.2.3.3.7.6,1,.2.3.5.3.7.6.2.3.6.6.8,1,.2.4-.2.4,0,.8.2.4.3.8.4,1.2.2.4-.9,1.2-.8,1.5.1.4-.2.9-.1,1.2.1.4-.2.8-.1,1.2,0,.3.7.7.7,1.1,0,.3-.9.7-.9,1.1,0,.3,1.5,1.1,1.5,1.6-.1.3-.7.6-.7,1,0,.3.4.8.3,1.1,0,.4,0,.9-.1,1.1-.2.3-.5.5-.7.8-.2.3-.7.4-.8.6-.2.2-.3.5-.4.8-.2.2-.7.3-.9.5-.3.2-1.1.8-1.4,1-.1,0-.4.4-.5.5-.1.1-.1.4-.3.5-.2.1-.6.7-.7.8-.2,0-.6-.3-.7-.2-.1.1,0,.6-.2.8,0,0-.1.2-.2.3,0,.1-.2.2-.3.3-.3.2-.4.8-.8,1s-.8,0-1.2,0c-.3.1-.6.4-1,.5-.3.1-.6.5-1,.6-.3.1-.7.4-1.1.5-.4,0-1-.9-1.4-.9-.4,0-.8-.5-1.2-.5s-.8.7-1.2.7c-.4,0-.8-.6-1.2-.6-.4,0-.8,0-1.2,0-.4,0-.8-.2-1.2-.3s-.8-.2-1.2-.2c-.4,0-.9.4-1.4.3-.4,0-.8-.2-1.2-.3-.4,0-.9-.1-1.3-.2-.4,0-.8-.4-1.2-.4-.4,0-.8-.5-1.2-.6-.4,0-1,.8-1.4.7s-.7-.6-1.1-.8c-.4-.1-.6-.6-1-.7-.4-.1-.9.1-1.2,0-.4-.2-.4-1.3-.7-1.5-.3-.2-.8,0-1.1-.2-.3-.2-.4-.6-.7-.8-.3-.2-.7-.3-1-.5-.3-.2-.4-.6-.6-.8-.2-.2-.3-.6-.5-.9-.2-.3-.6-.4-.7-.7-.1-.3-.3-.5-.4-.8,0-.3-.4-.6-.4-.9,0-.3,0-.6,0-.9,0-.3-.2-.6-.1-.9,0-.3.9-.4,1.1-.7,0-.3-.5-.8-.4-1.1.1-.3.4-.6.5-.8.1-.3.4-.6.5-.8.2-.3.8-.3,1-.6.2-.3-.5-1.2-.2-1.5.2-.3,1-.2,1.2-.5.2-.3.5-.5.8-.8.3-.3.8-.3,1.1-.6.3-.3-.2-1.3.1-1.6.3-.3.8-.3,1.1-.6.3-.3.7-.5.9-.9.3-.3.9-.4,1.2-.7.3-.3.2-.9.4-1.2.3-.3.9-.3,1.2-.6.3-.3-.2-1.3,0-1.6.3-.3,1.3,0,1.6-.2s.9-.8,1.2-1.1c.3-.3.7-.5,1-.7.3-.3.5-.7.8-1,.4-.3,1-.2,1.4-.5.4-.3.7-.5,1.1-.8.4-.3-.5-2.2-.1-2.5.4-.3,1-.2,1.3-.5.4-.2.2-1,.6-1.2,0,0,.2-.1.3-.2.2,0,.5,0,.7.2.4.2.6.9,1,1.1.4.2.8.5,1.1.7.4.2,1.8-1.3,2.2-1,.4.3.5.8.9,1.1.4.3,1-.2,1.3.1.3.3.7.5,1.1.9h0Z"/>
          </g>
          <g>
            <path class="st5" d="M261.1,48.5c0-.5.5-1,.5-1.5,0-.5-.7-1-.7-1.5,0-.5.5-1,.4-1.6,0-.5-.3-1-.4-1.6,0-.5,0-1.1-.2-1.6-.1-.5-.2-1-.4-1.6-.2-.5-.8-.9-1-1.4s-.3-1-.6-1.5c-.2-.5-.5-1-.8-1.4-.3-.5-.4-1.1-.8-1.5-.3-.4-.4-1.1-.8-1.5-.4-.4-1.4,0-1.8-.4-.4-.4-.4-1.1-.9-1.5-.4-.4-.6-1-1-1.3-.4-.3-1.1-.3-1.6-.6-.4-.3-.6-1.6-1.2-1.9-.5-.2-1.2-.1-1.7-.3-.5-.2-1-.6-1.6-.8-.6-.1-1.1,0-1.7-.1-.6,0-1.1-.3-1.7-.3-.6,0-1.1-.3-1.7-.2-.6,0-1.1.3-1.6.4-.6,0-1.1.2-1.6.3-.6,0-1.1.5-1.6.6-.5,0-1,.2-1.5.3-.5.1-.9.5-1.4.7-.5.2-1.2-.4-1.7-.2-.5.2-.7,1.1-1.1,1.3s-.9.3-1.4.6c-.4.3-.9.5-1.3.8-.4.3-1.1.1-1.6.5-.4.3-.1,1.5-.5,1.8-.4.3-1.2.2-1.5.6-.3.3-.7.7-1.1,1-.3.4-1,.5-1.3.9-.3.4.2,1.5-.1,1.8-.3.4-.9.6-1.1,1-.3.4-.6.8-.8,1.2-.2.4-.9.7-1,1.2-.2.4,0,1,0,1.4,0,0,0,.2-.1.2,0,0,0,0,0,0-.3-.3-1-.3-1.3-.7-.3-.4-.7-.5-1-.9-.3-.4-1.2-.3-1.5-.6-.3-.3-.5-.8-.8-1.1s-.6-.7-.9-1c-.3-.3-.2-1.1-.5-1.4s-.1-1.1-.4-1.5-.4-.8-.8-1.1c-.3-.3-.5-.7-.8-1.1-.3-.3-1-.3-1.3-.7-.3-.3-.3-1.1-.6-1.4-.3-.3-.8-.4-1.2-.7s-.9-.4-1.3-.7c-.4-.3-.3-1.3-.7-1.6-.4-.3-.6-.6-1-.9-.4-.3-1.1-.1-1.5-.4-.4-.3-.6-1.1-1.1-1.4-.5-.2-1.1,0-1.6-.3-.5-.2-.6-1.2-1.1-1.5-.5-.2-1.2,0-1.7-.2-.5-.2-.9-.7-1.4-.9-.5-.2-1.1-.3-1.7-.4-.6-.2-1-.7-1.6-.8-.6-.2-1.5.7-2.1.7-.6,0-1.1,1-1.6,1-.6,0-1.1,0-1.7.2s-.7.6-1.3.8c-.6.2-.9.8-1.4,1.1-.5.2-1.2.2-1.6.5-.4.3-.7.9-1.1,1.3-.4.4-.4,1-.8,1.4-.3.4-1.1.4-1.4.8-.3.4-.9.5-1.2,1-.3.5-.6.9-.8,1.3-.2.5-.6.9-.8,1.3-.2.5.1,1.1,0,1.5-.1.5-.2,1-.3,1.4-.1.4-.9.7-1.1,1.2-.1.5,0,1,0,1.5-.1.5-.5.9-.6,1.4-.1.5.3,1.1.2,1.5s-1.2.7-1.3,1.2c-.1.5-.6.9-.7,1.3-.1.5-.4.9-.5,1.4,0,.5,0,1.1,0,1.6,0,.5.3,1.1.3,1.6,0,.5-.4,1-.4,1.5,0,.5.2,1,.2,1.5,0,.5-.4,1-.4,1.6,0,.5,0,1.1,0,1.6,0,.5-.3,1.2-.1,1.7.1.5.3,1,.4,1.6.1.5.3,1.1.4,1.6.1.5.4.9.6,1.4.1.5.4,1,.6,1.5.1.5.9.8,1,1.3v.2c0,.2.6,2,.7,2.2.1.3.1.5.2.7s.3.4.4.7c.1.3.9,1.3,1,1.5.4.5.9.9,1.3,1.2.2.2.4.4.7.7.3.2.6.4.8.6.6.4.9.9,1.4,1.1.7.3,1.2,0,1.7.2.5.1,1.1.2,1.7.3.3.1.8,1.1,1.6,1.4.6.3,1.4-.2,2,0,.6.2,1,.1,1.5.2.7.2,1.4.3,1.8.3.7,0,1.2-.3,1.7-.4.6,0,1.2.6,1.6.4.5-.1,1.1.2,1.7,0,.5,0,.9-.9,1.5-1.1.4,0,.8.3,1.2.2.4,0,.7-.6,1.1-.7.7-.1,1.3-.3,2-.6.5-.1,1-.2,1.5-.4.5-.2.9-.5,1.4-.7s1.1-.2,1.5-.4c.5-.3.7-.9,1.2-1.2.4-.3.8-.8,1.2-1.1.4-.3,1.1-.3,1.5-.7.4-.3.9-.5,1.3-.9.3-.4.5-.9.9-1.3.3-.4,1-.4,1.4-.8.3-.4.4-1,.7-1.3.3-.4.8-.6,1.1-1,.3-.4.2-1.1.5-1.4.3-.4.5-.8.8-1.2.3-.4.4-.8.7-1.2.3-.4.6-.7.9-1.1.2-.4.8-.6,1-1,0-.1.1-.3.1-.5.4,0,.8,0,.9.3.3.3.3.9.6,1.2.3.3.2,1,.5,1.3.3.3.9.3,1.2.6.3.3.5.7.8,1,.3.3.6.2.8.5.3.3.7.5,1,.8.3.3,0,.4.2.8.3.3.5.7.8,1.1.3.4-.5,1.4-.2,1.8.3.4.2,1,.4,1.3.3.4.2.9.4,1.2.2.3,1,.4,1.2.8.2.3-.4,1.1-.2,1.5.2.3,2,.3,2.2.8.1.3-.1,1,.1,1.4.2.4.9.5,1.1.9.2.4.8.8.9,1.1.1.4,0,.9.3,1.3.2.4,0,1,.3,1.4.2.4.6.8.8,1.2.2.4.4,1.2.5,1.7.2.4.7,1.6,1,2h0c.2.5.7.9.9,1.2.4.6.9.9,1.2,1.1.4.5.8,1.3,1.2,1.7.5.4,1,0,1.4.3.5.2.9.4,1.3.6.4.1.8.2,1.2.2.4,0,.6-.4.9-.6.3-.1.8,0,1-.3.3-.3,1.2.2,1.3-.2.2-.4-.5-1.6-.5-2.1s.8-.7.7-1.3c-.1-.6-1.4-1.4-1.6-2-.2-.6,0-1.1-.3-1.8-.3-.6-.5-1-.9-1.6h0c-.3-.4-.6-.8-.9-1.2-.3-.4-.6-.9-.8-1.2-.3-.4-.3-.8-.6-1.1-.4-.4-.9-.3-1.2-.6-.3-.3-.7-.6-1.1-.9-.2-.2.2-1.2,0-1.8-.2-.4-1-.6-1.2-1.1-.2-.4-.5-.7-.6-1.1-.3-.6-.5-1.1-.7-1.3-.3-.5-.9-.7-1.1-1-.4-.4,0-1.2-.3-1.5-.3-.3-.2-.9-.6-1.4-.3-.3-1.2-.3-1.5-.8-.1-.3,0-.8-.1-1.1-.2-.3-.7-.4-.9-.7-.3-.5-.6-1-1-1.5-.2-.4-.4-.8-.7-1.2-.2-.4-.6-.7-.9-1-.2-.4-.3-.9-.5-1.3-.3-.4-.9-.5-1.1-.8-.3-.4-.7-.6-.9-1s-.2-1-.5-1.3c-.3-.3-.4-.9-.6-1.2-.3-.3-.7-.5-1-.8-.3-.3-.2-1-.5-1.3-.2-.2-.4-.3-.6-.5.2-.1.4-.2.5-.4.2-.4.6-.7.8-1,.2-.4.5-.7.7-1.1.2-.3,0-1,.2-1.4.2-.4.9-.5,1.1-.8s.1-.8.3-1.2c.2-.3.1-.8.3-1.2.2-.4,1.1-.3,1.3-.7.2-.3.5-.5.7-.8.2-.3,0-.9.2-1.2.2-.3,1-.3,1.2-.6.2-.3,0-.9.3-1.2.3-.3,1.1,0,1.4-.2.3-.2.2-.9.5-1.1.3-.2.7-.1,1.1-.3.3-.2.6-.4.9-.5.3-.1.8.2,1.1,0,.3,0,.4-1,.8-1.1.3,0,.4-1,.7-1,.4,0,.7,0,1,0,.3,0,.5-.4.8-.4s.7-.4,1.1-.4c.4,0,.7.5,1,.5.3,0,.7-.2,1.1-.2.3,0,.7-.3,1.1-.2.4,0,.5.8.8.8.3.1.4.6.7.7.3.1.6.3.9.5.3.1.5.5.8.6.3.2.8,0,1.1.1.3.2.7.3.9.6.3.2,0,1,.3,1.2.2.2.7.3,1,.6.2.3.3.8.4,1.1.2.3.9.4,1.1.7s-.5,1.1-.4,1.5c.1.3,0,.8,0,1.2.1.3,0,.7.1,1.1,0,.3.4.7.4,1.1,0,.3.6.7.7,1,0,.4-.1.8-.1,1.2,0,.4.3.7.4,1.1,0,.4-.4.8-.3,1.2,0,.4,0,.8,0,1.2,0,.4-.4.8-.4,1.2,0,.4.1.8,0,1.2,0,.4,0,.8,0,1.2,0,.4,0,.8,0,1.1-.1.4,0,.8-.1,1.2-.1.4.3.9.1,1.3v.2c-.2.2-.9,1.4-1,1.5-.1.2-.2.3-.3.5s0,.4-.2.6c0,.2-.4,1.1-.5,1.3l8.3,2.5-8.3-2.5-.4,1.4c-.1.3,0,.8-.1,1.1,0,.4-.3.8-.3,1.1,0,.5,0,.9,0,1.3,0,.4,0,.6.1,1,.1.4.4,1.3.7,1.6.2.3.9.1,1.3.3.3.2.6.4,1,.5.4.1.7.2,1.1.1.4,0,.7,0,1.1,0,.4-.2.4,0,.8-.2.4-.2.5-.4.8-.6.3-.3.6-.3.9-.6s.5-1.2.8-1.5c.3-.3.4-1.1.6-1.5.3-.4.5-.9.6-1.3h0c0-.2.1-.7.2-.9,0-.2,0-.5,0-.8,0-.2.1-1.2.1-1.4,0-.2.6-.3.7-.6,0-.2-.4-.6-.4-.8,0-.1,0-.3-.1-.4,0-.2,0-.4,0-.6,0-.5-.4-1-.3-1.5,0-.5.5-.9.5-1.4,0-.5,0-.9,0-1.4,0-.5-.3-1-.2-1.4,0-.5-.2-.9-.2-1.4,0-.5,1-1,1-1.5h-.1ZM215.5,47.7c-.2.4-.9.6-1.1,1-.2.4-.5.8-.7,1.1-.2.4,1.3,1.8,1.1,2.2s-.8.5-1.1.9c-.3.3.2.9-.1,1.3s-.6.7-.9,1.1c-.3.3-1.2,0-1.4.3-.3.3-.5.7-.7,1-.3.3-.2.9-.4,1.2-.3.3-.1.9-.4,1.2-.3.3-.9.2-1.2.5-.3.3-.9.2-1.1.5-.3.3,0,1.1-.3,1.4-.3.3-.8.3-1.1.5-.3.2-.8.1-1.1.3-.3.2-.3.9-.6,1.1-.3.2-.7.3-1,.5-.3.2-.3.5-.6.7-.4.2-.6.6-1,.8-.4.2-.4-.2-.7,0-.4.2-.8.3-1.1.4-.4.2-1.1-.9-1.5-.8-.4.1-.9-.2-1.2-.1-.4.1-.8-.2-1.1-.1-.4,0-.7.7-1.1.7-.4,0-.7-.9-1.1-.9-.3,0-1.1,1.5-1.6,1.5-.3-.1-.6-.7-1-.7-.4,0-.8.4-1.1.3-.4,0-.9,0-1.1-.1-.3-.2-.5-.6-.8-.7-.3-.2-.4-.7-.6-.8-.2-.2-.5-.3-.8-.4-.2-.2-.3-.8-.5-.9-.2-.3-.8-1.1-1-1.4-.1-.1-.4-.4-.5-.5-.1-.1-.4-.2-.5-.3-.1-.1-.7-.6-.8-.7-.1-.2.3-.6.2-.7-.1-.1-.6,0-.7-.2,0,0-.2-.1-.3-.2-.1-.1-.2-.2-.3-.3-.2-.3-.8-.4-.9-.8-.2-.3,0-.8-.1-1.2-.1-.3-.4-.6-.5-1-.1-.3-.5-.6-.6-1-.1-.3-.4-.7-.5-1.1-.1-.4.9-1,.9-1.4,0-.4.5-.8.5-1.2,0-.4-.7-.8-.7-1.2s.6-.8.6-1.2c0-.4,0-.8,0-1.2,0-.4.2-.8.3-1.2s.1-.8.2-1.2-.4-.9-.3-1.3c0-.4.2-.8.3-1.2,0-.4.1-.9.2-1.3,0-.4.4-.8.4-1.2,0-.4.5-.8.6-1.2,0-.4-.8-1-.7-1.4.1-.4.6-.7.8-1.1.1-.4.6-.6.7-1,.1-.3-.1-.9,0-1.2s1.3-.4,1.5-.7c.2-.3,0-.8.2-1.1.2-.3.6-.5.8-.7.2-.3.3-.7.5-1,.2-.3.6-.4.8-.6.2-.2.6-.3.9-.5.3-.2.4-.6.7-.7.3-.1.5-.4.8-.4s.6-.4.9-.4c.3,0,.6,0,.9,0,.3,0,.6-.2.9-.1s.4.9.7,1c.3,0,.8-.5,1.1-.4.3.1.6.4.8.5.3.1.6.4.9.5.3.2.3.9.6,1s1.2-.5,1.5-.2c.3.2.2,1,.5,1.2.3.2.5.5.8.8.3.3.3.8.6,1.1s1.3-.2,1.6,0c.3.3.4.8.7,1.1.3.3.5.7.9.9.3.3.4.9.7,1.2.3.3.9.2,1.2.4.3.3.3.9.6,1.2.3.3,1.3-.2,1.6,0,.3.3,0,1.3.2,1.6.3.3.8.9,1.1,1.2.3.3.4.7.7,1,.3.3.7.5,1,.8.3.4.2,1,.5,1.4.3.4.5.8.8,1.1s2.2-.5,2.5-.2c.3.4.2,1,.5,1.3.3.4,1,.2,1.2.6,0,0,.1.2.2.3,0,.2,0,.5-.2.7h0Z"/>
            <path class="st4" d="M261.1,48.5c0-.5.5-1,.5-1.5,0-.5-.7-1-.7-1.5,0-.5.5-1,.4-1.6,0-.5-.3-1-.4-1.6,0-.5,0-1.1-.2-1.6-.1-.5-.2-1-.4-1.6-.2-.5-.8-.9-1-1.4s-.3-1-.6-1.5c-.2-.5-.5-1-.8-1.4-.3-.5-.4-1.1-.8-1.5-.3-.4-.4-1.1-.8-1.5-.4-.4-1.4,0-1.8-.4-.4-.4-.4-1.1-.9-1.5-.4-.4-.6-1-1-1.3-.4-.3-1.1-.3-1.6-.6-.4-.3-.6-1.6-1.2-1.9-.5-.2-1.2-.1-1.7-.3-.5-.2-1-.6-1.6-.8-.6-.1-1.1,0-1.7-.1-.6,0-1.1-.3-1.7-.3-.6,0-1.1-.3-1.7-.2-.6,0-1.1.3-1.6.4-.6,0-1.1.2-1.6.3-.6,0-1.1.5-1.6.6-.5,0-1,.2-1.5.3-.5.1-.9.5-1.4.7-.5.2-1.2-.4-1.7-.2-.5.2-.7,1.1-1.1,1.3s-.9.3-1.4.6c-.4.3-.9.5-1.3.8-.4.3-1.1.1-1.6.5-.4.3-.1,1.5-.5,1.8-.4.3-1.2.2-1.5.6-.3.3-.7.7-1.1,1-.3.4-1,.5-1.3.9-.3.4.2,1.5-.1,1.8-.3.4-.9.6-1.1,1-.3.4-.6.8-.8,1.2-.2.4-.9.7-1,1.2-.2.4,0,1,0,1.4,0,0,0,.2-.1.2,0,0,0,0,0,0-.3-.3-1-.3-1.3-.7-.3-.4-.7-.5-1-.9-.3-.4-1.2-.3-1.5-.6-.3-.3-.5-.8-.8-1.1s-.6-.7-.9-1c-.3-.3-.2-1.1-.5-1.4s-.1-1.1-.4-1.5-.4-.8-.8-1.1c-.3-.3-.5-.7-.8-1.1-.3-.3-1-.3-1.3-.7-.3-.3-.3-1.1-.6-1.4-.3-.3-.8-.4-1.2-.7s-.9-.4-1.3-.7c-.4-.3-.3-1.3-.7-1.6-.4-.3-.6-.6-1-.9-.4-.3-1.1-.1-1.5-.4-.4-.3-.6-1.1-1.1-1.4-.5-.2-1.1,0-1.6-.3-.5-.2-.6-1.2-1.1-1.5-.5-.2-1.2,0-1.7-.2-.5-.2-.9-.7-1.4-.9-.5-.2-1.1-.3-1.7-.4-.6-.2-1-.7-1.6-.8-.6-.2-1.5.7-2.1.7-.6,0-1.1,1-1.6,1-.6,0-1.1,0-1.7.2s-.7.6-1.3.8c-.6.2-.9.8-1.4,1.1-.5.2-1.2.2-1.6.5-.4.3-.7.9-1.1,1.3-.4.4-.4,1-.8,1.4-.3.4-1.1.4-1.4.8-.3.4-.9.5-1.2,1-.3.5-.6.9-.8,1.3-.2.5-.6.9-.8,1.3-.2.5.1,1.1,0,1.5-.1.5-.2,1-.3,1.4-.1.4-.9.7-1.1,1.2-.1.5,0,1,0,1.5-.1.5-.5.9-.6,1.4-.1.5.3,1.1.2,1.5s-1.2.7-1.3,1.2c-.1.5-.6.9-.7,1.3-.1.5-.4.9-.5,1.4,0,.5,0,1.1,0,1.6,0,.5.3,1.1.3,1.6,0,.5-.4,1-.4,1.5,0,.5.2,1,.2,1.5,0,.5-.4,1-.4,1.6,0,.5,0,1.1,0,1.6,0,.5-.3,1.2-.1,1.7.1.5.3,1,.4,1.6.1.5.3,1.1.4,1.6.1.5.4.9.6,1.4.1.5.4,1,.6,1.5.1.5.9.8,1,1.3v.2c0,.2.6,2,.7,2.2.1.3.1.5.2.7s.3.4.4.7c.1.3.9,1.3,1,1.5.4.5.9.9,1.3,1.2.2.2.4.4.7.7.3.2.6.4.8.6.6.4.9.9,1.4,1.1.7.3,1.2,0,1.7.2.5.1,1.1.2,1.7.3.3.1.8,1.1,1.6,1.4.6.3,1.4-.2,2,0,.6.2,1,.1,1.5.2.7.2,1.4.3,1.8.3.7,0,1.2-.3,1.7-.4.6,0,1.2.6,1.6.4.5-.1,1.1.2,1.7,0,.5,0,.9-.9,1.5-1.1.4,0,.8.3,1.2.2.4,0,.7-.6,1.1-.7.7-.1,1.3-.3,2-.6.5-.1,1-.2,1.5-.4.5-.2.9-.5,1.4-.7s1.1-.2,1.5-.4c.5-.3.7-.9,1.2-1.2.4-.3.8-.8,1.2-1.1.4-.3,1.1-.3,1.5-.7.4-.3.9-.5,1.3-.9.3-.4.5-.9.9-1.3.3-.4,1-.4,1.4-.8.3-.4.4-1,.7-1.3.3-.4.8-.6,1.1-1,.3-.4.2-1.1.5-1.4.3-.4.5-.8.8-1.2.3-.4.4-.8.7-1.2.3-.4.6-.7.9-1.1.2-.4.8-.6,1-1,0-.1.1-.3.1-.5.4,0,.8,0,.9.3.3.3.3.9.6,1.2.3.3.2,1,.5,1.3.3.3.9.3,1.2.6.3.3.5.7.8,1,.3.3.6.2.8.5.3.3.7.5,1,.8.3.3,0,.4.2.8.3.3.5.7.8,1.1.3.4-.5,1.4-.2,1.8.3.4.2,1,.4,1.3.3.4.2.9.4,1.2.2.3,1,.4,1.2.8.2.3-.4,1.1-.2,1.5.2.3,2,.3,2.2.8.1.3-.1,1,.1,1.4.2.4.9.5,1.1.9.2.4.8.8.9,1.1.1.4,0,.9.3,1.3.2.4,0,1,.3,1.4.2.4.6.8.8,1.2.2.4.4,1.2.5,1.7.2.4.7,1.6,1,2h0c.2.5.7.9.9,1.2.4.6.9.9,1.2,1.1.4.5.8,1.3,1.2,1.7.5.4,1,0,1.4.3.5.2.9.4,1.3.6.4.1.8.2,1.2.2.4,0,.6-.4.9-.6.3-.1.8,0,1-.3.3-.3,1.2.2,1.3-.2.2-.4-.5-1.6-.5-2.1s.8-.7.7-1.3c-.1-.6-1.4-1.4-1.6-2-.2-.6,0-1.1-.3-1.8-.3-.6-.5-1-.9-1.6h0c-.3-.4-.6-.8-.9-1.2-.3-.4-.6-.9-.8-1.2-.3-.4-.3-.8-.6-1.1-.4-.4-.9-.3-1.2-.6-.3-.3-.7-.6-1.1-.9-.2-.2.2-1.2,0-1.8-.2-.4-1-.6-1.2-1.1-.2-.4-.5-.7-.6-1.1-.3-.6-.5-1.1-.7-1.3-.3-.5-.9-.7-1.1-1-.4-.4,0-1.2-.3-1.5-.3-.3-.2-.9-.6-1.4-.3-.3-1.2-.3-1.5-.8-.1-.3,0-.8-.1-1.1-.2-.3-.7-.4-.9-.7-.3-.5-.6-1-1-1.5-.2-.4-.4-.8-.7-1.2-.2-.4-.6-.7-.9-1-.2-.4-.3-.9-.5-1.3-.3-.4-.9-.5-1.1-.8-.3-.4-.7-.6-.9-1s-.2-1-.5-1.3c-.3-.3-.4-.9-.6-1.2-.3-.3-.7-.5-1-.8-.3-.3-.2-1-.5-1.3-.2-.2-.4-.3-.6-.5.2-.1.4-.2.5-.4.2-.4.6-.7.8-1,.2-.4.5-.7.7-1.1.2-.3,0-1,.2-1.4.2-.4.9-.5,1.1-.8s.1-.8.3-1.2c.2-.3.1-.8.3-1.2.2-.4,1.1-.3,1.3-.7.2-.3.5-.5.7-.8.2-.3,0-.9.2-1.2.2-.3,1-.3,1.2-.6.2-.3,0-.9.3-1.2.3-.3,1.1,0,1.4-.2.3-.2.2-.9.5-1.1.3-.2.7-.1,1.1-.3.3-.2.6-.4.9-.5.3-.1.8.2,1.1,0,.3,0,.4-1,.8-1.1.3,0,.4-1,.7-1,.4,0,.7,0,1,0,.3,0,.5-.4.8-.4s.7-.4,1.1-.4c.4,0,.7.5,1,.5.3,0,.7-.2,1.1-.2.3,0,.7-.3,1.1-.2.4,0,.5.8.8.8.3.1.4.6.7.7.3.1.6.3.9.5.3.1.5.5.8.6.3.2.8,0,1.1.1.3.2.7.3.9.6.3.2,0,1,.3,1.2.2.2.7.3,1,.6.2.3.3.8.4,1.1.2.3.9.4,1.1.7s-.5,1.1-.4,1.5c.1.3,0,.8,0,1.2.1.3,0,.7.1,1.1,0,.3.4.7.4,1.1,0,.3.6.7.7,1,0,.4-.1.8-.1,1.2,0,.4.3.7.4,1.1,0,.4-.4.8-.3,1.2,0,.4,0,.8,0,1.2,0,.4-.4.8-.4,1.2,0,.4.1.8,0,1.2,0,.4,0,.8,0,1.2,0,.4,0,.8,0,1.1-.1.4,0,.8-.1,1.2-.1.4.3.9.1,1.3v.2c-.2.2-.9,1.4-1,1.5-.1.2-.2.3-.3.5s0,.4-.2.6c0,.2-.4,1.1-.5,1.3l8.3,2.5-8.3-2.5-.4,1.4c-.1.3,0,.8-.1,1.1,0,.4-.3.8-.3,1.1,0,.5,0,.9,0,1.3,0,.4,0,.6.1,1,.1.4.4,1.3.7,1.6.2.3.9.1,1.3.3.3.2.6.4,1,.5.4.1.7.2,1.1.1.4,0,.7,0,1.1,0,.4-.2.4,0,.8-.2.4-.2.5-.4.8-.6.3-.3.6-.3.9-.6s.5-1.2.8-1.5c.3-.3.4-1.1.6-1.5.3-.4.5-.9.6-1.3h0c0-.2.1-.7.2-.9,0-.2,0-.5,0-.8,0-.2.1-1.2.1-1.4,0-.2.6-.3.7-.6,0-.2-.4-.6-.4-.8,0-.1,0-.3-.1-.4,0-.2,0-.4,0-.6,0-.5-.4-1-.3-1.5,0-.5.5-.9.5-1.4,0-.5,0-.9,0-1.4,0-.5-.3-1-.2-1.4,0-.5-.2-.9-.2-1.4,0-.5,1-1,1-1.5h-.1ZM215.5,47.7c-.2.4-.9.6-1.1,1-.2.4-.5.8-.7,1.1-.2.4,1.3,1.8,1.1,2.2s-.8.5-1.1.9c-.3.3.2.9-.1,1.3s-.6.7-.9,1.1c-.3.3-1.2,0-1.4.3-.3.3-.5.7-.7,1-.3.3-.2.9-.4,1.2-.3.3-.1.9-.4,1.2-.3.3-.9.2-1.2.5-.3.3-.9.2-1.1.5-.3.3,0,1.1-.3,1.4-.3.3-.8.3-1.1.5-.3.2-.8.1-1.1.3-.3.2-.3.9-.6,1.1-.3.2-.7.3-1,.5-.3.2-.3.5-.6.7-.4.2-.6.6-1,.8-.4.2-.4-.2-.7,0-.4.2-.8.3-1.1.4-.4.2-1.1-.9-1.5-.8-.4.1-.9-.2-1.2-.1-.4.1-.8-.2-1.1-.1-.4,0-.7.7-1.1.7-.4,0-.7-.9-1.1-.9-.3,0-1.1,1.5-1.6,1.5-.3-.1-.6-.7-1-.7-.4,0-.8.4-1.1.3-.4,0-.9,0-1.1-.1-.3-.2-.5-.6-.8-.7-.3-.2-.4-.7-.6-.8-.2-.2-.5-.3-.8-.4-.2-.2-.3-.8-.5-.9-.2-.3-.8-1.1-1-1.4-.1-.1-.4-.4-.5-.5-.1-.1-.4-.2-.5-.3-.1-.1-.7-.6-.8-.7-.1-.2.3-.6.2-.7-.1-.1-.6,0-.7-.2,0,0-.2-.1-.3-.2-.1-.1-.2-.2-.3-.3-.2-.3-.8-.4-.9-.8-.2-.3,0-.8-.1-1.2-.1-.3-.4-.6-.5-1-.1-.3-.5-.6-.6-1-.1-.3-.4-.7-.5-1.1-.1-.4.9-1,.9-1.4,0-.4.5-.8.5-1.2,0-.4-.7-.8-.7-1.2s.6-.8.6-1.2c0-.4,0-.8,0-1.2,0-.4.2-.8.3-1.2s.1-.8.2-1.2-.4-.9-.3-1.3c0-.4.2-.8.3-1.2,0-.4.1-.9.2-1.3,0-.4.4-.8.4-1.2,0-.4.5-.8.6-1.2,0-.4-.8-1-.7-1.4.1-.4.6-.7.8-1.1.1-.4.6-.6.7-1,.1-.3-.1-.9,0-1.2s1.3-.4,1.5-.7c.2-.3,0-.8.2-1.1.2-.3.6-.5.8-.7.2-.3.3-.7.5-1,.2-.3.6-.4.8-.6.2-.2.6-.3.9-.5.3-.2.4-.6.7-.7.3-.1.5-.4.8-.4s.6-.4.9-.4c.3,0,.6,0,.9,0,.3,0,.6-.2.9-.1s.4.9.7,1c.3,0,.8-.5,1.1-.4.3.1.6.4.8.5.3.1.6.4.9.5.3.2.3.9.6,1s1.2-.5,1.5-.2c.3.2.2,1,.5,1.2.3.2.5.5.8.8.3.3.3.8.6,1.1s1.3-.2,1.6,0c.3.3.4.8.7,1.1.3.3.5.7.9.9.3.3.4.9.7,1.2.3.3.9.2,1.2.4.3.3.3.9.6,1.2.3.3,1.3-.2,1.6,0,.3.3,0,1.3.2,1.6.3.3.8.9,1.1,1.2.3.3.4.7.7,1,.3.3.7.5,1,.8.3.4.2,1,.5,1.4.3.4.5.8.8,1.1s2.2-.5,2.5-.2c.3.4.2,1,.5,1.3.3.4,1,.2,1.2.6,0,0,.1.2.2.3,0,.2,0,.5-.2.7h0Z"/>
          </g>
          <path class="st3" d="M115.4,60.7c0,0,0-.2,0-.2v-.3c.2,0,.2-.2.3-.2s0,0,0-.1v-1.5c0,0,0-.2.1-.5s.1-.4.2-.5l.6-.6s.1-.2.2-.3.1-.3.2-.3.2-.3.5-.7c.3-.4.6-.7.7-.8h.1c0-.1.1-.3.1-.3.2-.2.6-.5,1.2-1,.6-.5,1.1-.8,1.2-1,0,0,0,0,.1,0,0,0,0,0,.1,0h.1c0,.1.3.2.5.4.2.2.4.3.4.3,0,0,0,0,0,.1,0,0-.1,0-.1.1h1c.1.2.4.5.8,1,.4.5.7.8.8,1,0,0,.2.2.3.3.2.2.3.3.3.3,0,0,0,.3.1.6,0,.3.2.5.2.6v.6c0,.1-.1.3-.2.5s-.1.3-.1.4c0,0,0,.2-.3.2s-.3.1-.3.2c0,0-.2,0-.3.2s-.3.3-.6.6c-.2.2-.4.4-.6.6-.2.2-.3.3-.3.3,0,0-.2.2-.3.2s-.3.1-.3.2,0,.2-.1.5c0,.3,0,.5-.1.6,0,0-.1.2-.2.2s-.1.1-.1.2c0,0-.2,0-.5,0-.3,0-.4,0-.5,0,0,0-.1.1-.2.4s-.1.4-.1.5c0,0-.2.1-.5.2s-.5.1-.6.1c0,0,0,.1-.2.2s-.3.1-.3.1l-.2-.2c-.2-.2-.3-.3-.3-.4,0,0-.2-.2-.3-.5s-.3-.4-.3-.4c0,0-.4-.2-.9-.4-.5-.2-.8-.3-.9-.3,0,0-.2-.1-.2-.3s-.1-.3-.1-.3,0-.1,0-.2c0,0,0-.2,0-.2v-.3h0ZM118.3,39.6s0,0,0-.1c0,0,0-.2,0-.2v-.3c.1,0,.1-.3.1-.3,0,0,0-.2-.1-.3,0-.2-.1-.3-.1-.3l-.3-.3c0,0-.2,0-.5-.1s-.4,0-.5-.1c0-.2,0-.7-.1-1.5s-.2-1.2-.2-1.5c0,0-.1-.2-.4-.6s-.4-.5-.4-.6v-.6c0,0,0-.2.1-.3s.1-.2.2-.3l1.6-1.5s0-.1.1-.3c0-.2.1-.3.1-.3,0,0,.2-.3.3-.5s.2-.4.3-.4l.6-.6v-.4h0c0,0,.1-.2.1-.2,0,0,.3-.1.5-.3.2-.2.4-.3.6-.3h.1c0,.1,0,.2,0,.2s0,0,0,0,0,0,0,0c0,0,.2.2.3.6.2.4.3.5.3.5,0,0,.1.2.3.4s.3.3.3.3.4.1.9.3.8.3.9.3c0,0,.2,0,.2.1,0,0,0,.1.1.1,0,0,.2.2.6.4.3.2.6.3.6.3,0,0,0,.1.1.2,0,0,.2.2.2.2v.3c0,.2,0,.3.3.3s.2,0,.5,0,.5,0,.6,0c0,.2,0,.6,0,1.3,0,.7,0,1.1-.2,1.3,0,.2,0,.4,0,.7,0,.3,0,.5-.1.6,0,0,0,0-.2.1s-.3,0-.4.1c0,0-.2,0-.5.1s-.4.2-.5.2c0,0,0,0,0,.2s0,.3,0,.4c0,0-.1.1-.2.2s-.1.2-.2.3c0,.2,0,.3-.3.3,0,0-.1,0-.3.1s-.3,0-.3,0c-.2.2-.6.5-1.1.9-.5.4-.9.7-1.1.7h-.3c0,0-.3-.3-.7-.6-.3-.3-.6-.5-.6-.6,0,0,.2-.1.3-.2.2,0,.3-.2.3-.2.2,0,.3,0,.3-.2h0c0-.1,0-.3,0-.3h0c0-.2,0-.3-.2-.4s-.3-.2-.3-.2c0,0-.2.2-.3.5s-.2.4-.3.5c0,0,0,.2-.1.3,0,.2,0,.4-.1.6,0,.2,0,.5-.1.7,0,.2,0,.4,0,.5s0,0-.2.1-.3,0-.3,0h-.1c0,0,0,0-.1,0v-.3c-.1,0-.3-.3-.3-.3v-.3h0ZM117.7,34c0,0-.1,0-.1.1s0,.2.1.2c0,0,.1-.1.1-.2s0-.1-.1-.1ZM119.4,29.3s0,0,0,.1,0,.2,0,.2c.1,0,.2-.2.2-.2s0-.1-.2-.1h0ZM121.4,53c-.2,0-.3.1-.3.3s0,.3.3.3.2-.1.2-.3,0-.3-.2-.3ZM123.9,56.1h.3v-.3h-.3v.3ZM124.8,57.4h.3v-.3h-.3v.3ZM125.2,29c.1,0,.2.1.2.3s0,.3-.2.3-.3-.1-.3-.3,0-.3.3-.3ZM125.4,29.3c.2,0,.3.1.3.3s0,.3-.3.3-.2-.1-.2-.3,0-.3.2-.3ZM126.1,30.1v.4l-.3-.4h.3ZM128.6,31.5c.1,0,.2.1.2.3s0,.3-.2.3-.3-.1-.3-.3,0-.3.3-.3Z"/>
        </g>
      </g>
    </g>
  </g>
</svg>