<?xml version="1.0" encoding="UTF-8"?>
<svg id="_レイヤー_2" data-name="レイヤー 2" xmlns="http://www.w3.org/2000/svg" xmlns:xlink="http://www.w3.org/1999/xlink" viewBox="0 0 1331.07 1140.45">
  <defs>
    <style>
      .cls-1 {
        fill: none;
        stroke: url(#_名称未設定グラデーション_3);
        stroke-miterlimit: 10;
        stroke-width: 1.16px;
      }
    </style>
    <linearGradient id="_名称未設定グラデーション_3" data-name="名称未設定グラデーション 3" x1="5357.63" y1="1426.72" x2="6832.44" y2="1426.72" gradientTransform="translate(6945.39 857) rotate(-164.33) scale(1 -1)" gradientUnits="userSpaceOnUse">
      <stop offset="0" stop-color="#8aecff"/>
      <stop offset=".43" stop-color="#5a95b4"/>
      <stop offset="1" stop-color="#181e4d"/>
    </linearGradient>
  </defs>
  <g id="_編集_ワイヤーフレーム" data-name="編集_ワイヤーフレーム">
    <path class="cls-1" d="M109.1.36c120.9,153.25,199.45,334.77,298.03,503.25,82.15,140.41,179.41,273.17,299.1,383.35,119.69,110.18,262.71,197.34,419.89,239.3,45.5,12.15,95.54,23.35,139.38-.15,30.22-16.2,53.06-45.57,61.33-78.84,11.18-45.01-4.3-93.6-32.13-130.71-81.36-108.48-242.72-149.93-365.56-189.67-143.81-46.52-287.14-89.76-426.25-149.09-138.51-59.08-273.54-126.33-404.14-201.31-32.97-18.93-65.97-38.07-98.46-57.78"/>
  </g>
</svg>