<?xml version="1.0" encoding="UTF-8"?>
<svg id="_レイヤー_2" data-name="レイヤー 2" xmlns="http://www.w3.org/2000/svg" xmlns:xlink="http://www.w3.org/1999/xlink" viewBox="0 0 22 16">
  <defs>
    <style>
      .cls-1 {
        fill: url(#_名称未設定グラデーション_136-4);
      }

      .cls-2 {
        fill: url(#_名称未設定グラデーション_136-3);
      }

      .cls-3 {
        fill: url(#_名称未設定グラデーション_136-2);
      }

      .cls-4 {
        fill: url(#_名称未設定グラデーション_136);
      }
    </style>
    <linearGradient id="_名称未設定グラデーション_136" data-name="名称未設定グラデーション 136" x1="0" y1="8" x2="22" y2="8" gradientUnits="userSpaceOnUse">
      <stop offset="0" stop-color="#181e4d"/>
      <stop offset=".26" stop-color="#19204f"/>
      <stop offset=".41" stop-color="#1d2856"/>
      <stop offset=".53" stop-color="#253661"/>
      <stop offset=".63" stop-color="#304972"/>
      <stop offset=".72" stop-color="#3e6388"/>
      <stop offset=".81" stop-color="#4f82a3"/>
      <stop offset=".89" stop-color="#64a7c3"/>
      <stop offset=".96" stop-color="#7bd1e8"/>
      <stop offset="1" stop-color="#8aecff"/>
    </linearGradient>
    <linearGradient id="_名称未設定グラデーション_136-2" data-name="名称未設定グラデーション 136" x1="1.24" y1="5.45" x2="20.76" y2="5.45" xlink:href="#_名称未設定グラデーション_136"/>
    <linearGradient id="_名称未設定グラデーション_136-3" data-name="名称未設定グラデーション 136" x1="1.29" y1="11.06" x2="9.34" y2="11.06" xlink:href="#_名称未設定グラデーション_136"/>
    <linearGradient id="_名称未設定グラデーション_136-4" data-name="名称未設定グラデーション 136" x1="12.66" y1="11.06" x2="20.71" y2="11.06" xlink:href="#_名称未設定グラデーション_136"/>
  </defs>
  <g id="_編集_ワイヤーフレーム" data-name="編集_ワイヤーフレーム">
    <g>
      <path class="cls-4" d="M19.91,16H2.09c-1.15,0-2.09-.98-2.09-2.19V2.19C0,.98.94,0,2.09,0h17.82c1.15,0,2.09.98,2.09,2.19v11.61c0,1.21-.94,2.19-2.09,2.19ZM2.09,1.22c-.51,0-.93.44-.93.98v11.61c0,.54.42.98.93.98h17.82c.51,0,.93-.44.93-.98V2.19c0-.54-.42-.98-.93-.98H2.09Z"/>
      <path class="cls-3" d="M11,9.38L1.5,2.63c-.27-.19-.33-.57-.16-.84.18-.28.54-.35.8-.16l8.85,6.28L19.85,1.63c.27-.19.63-.11.8.16.18.28.11.66-.16.84l-9.5,6.74Z"/>
      <path class="cls-2" d="M1.87,14.6c-.17,0-.34-.08-.45-.23-.2-.26-.16-.64.09-.86l6.89-5.87c.25-.21.61-.17.82.09.2.26.16.64-.09.86l-6.89,5.87c-.11.09-.24.14-.36.14Z"/>
      <path class="cls-1" d="M20.13,14.6c-.13,0-.26-.04-.36-.14l-6.89-5.87c-.25-.21-.29-.59-.09-.86.2-.26.57-.3.82-.09l6.89,5.87c.25.21.29.59.09.86-.11.15-.28.23-.45.23Z"/>
    </g>
  </g>
</svg>