<?xml version="1.0" encoding="UTF-8"?>
<svg id="_レイヤー_2" data-name="レイヤー 2" xmlns="http://www.w3.org/2000/svg" viewBox="0 0 99.58 80.26">
  <defs>
    <style>
      .cls-1 {
        fill: #636363;
      }
    </style>
  </defs>
  <g id="_編集_ワイヤーフレーム" data-name="編集_ワイヤーフレーム">
    <path class="cls-1" d="M97.88,0H1.71C.76,0,0,.76,0,1.71v55.28c0,.95.76,1.71,1.71,1.71h33.65v5.87h-8.34c-4.9,0-8.89,3.99-8.89,8.89v5.1c0,.94.76,1.71,1.71,1.71h59.38c.94,0,1.71-.76,1.71-1.71v-5.1c0-4.9-3.99-8.89-8.89-8.89h-8.34v-5.87h34.2c.95,0,1.71-.76,1.71-1.71V1.71c0-.94-.76-1.71-1.71-1.71ZM72.02,67.98c3.02,0,5.48,2.46,5.48,5.48v3.39H21.53v-3.39c0-3.02,2.46-5.48,5.48-5.48h45.01ZM60.26,64.56h-21.5v-5.87h21.5v5.87ZM96.17,55.28H3.41V3.41h92.76v51.87ZM11.28,50.85h77.02c.94,0,1.71-.76,1.71-1.71V9.55c0-.94-.76-1.71-1.71-1.71H11.28c-.94,0-1.71.76-1.71,1.71v39.58c0,.95.76,1.71,1.71,1.71ZM12.99,11.26h73.6v36.17H12.99V11.26Z"/>
  </g>
</svg>