<?xml version="1.0" encoding="UTF-8"?>
<svg id="_レイヤー_2" data-name="レイヤー 2" xmlns="http://www.w3.org/2000/svg" viewBox="0 0 66.72 94.16">
  <defs>
    <style>
      .cls-1 {
        fill: #636363;
        stroke: #636363;
        stroke-miterlimit: 10;
      }
    </style>
  </defs>
  <g id="_編集_ワイヤーフレーム" data-name="編集_ワイヤーフレーム">
    <path class="cls-1" d="M65.18,17.68L49.93,1.6c-.67-.71-1.56-1.1-2.51-1.1H4.06C2.1.5.5,2.18.5,4.25v85.66c0,2.07,1.6,3.75,3.56,3.75h58.61c1.96,0,3.56-1.68,3.56-3.75V20.33c0-.99-.38-1.95-1.04-2.65ZM61.25,18.65h-12.24V5.73l12.24,12.92ZM62.66,90.05H4.06c-.07,0-.13-.06-.13-.14V4.25c0-.08.06-.14.13-.14h41.53v16.34c0,1,.77,1.81,1.71,1.81h15.5v67.65c0,.08-.06.14-.13.14Z"/>
  </g>
</svg>