<?xml version="1.0" encoding="UTF-8"?>
<svg id="_レイヤー_2" data-name="レイヤー 2" xmlns="http://www.w3.org/2000/svg" viewBox="0 0 67.84 90">
  <defs>
    <style>
      .cls-1 {
        fill: #636363;
      }
    </style>
  </defs>
  <g id="_編集_ワイヤーフレーム" data-name="編集_ワイヤーフレーム">
    <path class="cls-1" d="M64.48,3.36v83.28H3.36V3.36h61.12M0,2.61v84.78c0,1.44,1.17,2.61,2.61,2.61h62.61c1.44,0,2.61-1.17,2.61-2.61V2.61c0-1.44-1.17-2.61-2.61-2.61H2.61C1.17,0,0,1.17,0,2.61ZM57.1,16.85v16.79h-13.77v-16.79h13.77M39.97,15.97v18.55c0,1.37,1.11,2.48,2.48,2.48h15.53c1.37,0,2.48-1.11,2.48-2.48V15.97c0-1.37-1.11-2.48-2.48-2.48h-15.53c-1.37,0-2.48,1.11-2.48,2.48ZM33.58,20.15c0-.93-.75-1.68-1.68-1.68H11.75c-.93,0-1.68.75-1.68,1.68s.75,1.68,1.68,1.68h20.15c.93,0,1.68-.75,1.68-1.68ZM33.58,32.57c0-.93-.75-1.68-1.68-1.68H11.75c-.93,0-1.68.75-1.68,1.68s.75,1.68,1.68,1.68h20.15c.93,0,1.68-.75,1.68-1.68ZM57.76,45c0-.93-.75-1.68-1.68-1.68H12.09c-.93,0-1.68.75-1.68,1.68s.75,1.68,1.68,1.68h43.99c.93,0,1.68-.75,1.68-1.68ZM59.78,58.99c0-.93-.75-1.68-1.68-1.68H12.09c-.93,0-1.68.75-1.68,1.68s.75,1.68,1.68,1.68h46.01c.93,0,1.68-.75,1.68-1.68ZM57.76,72.2c0-.93-.75-1.68-1.68-1.68H11.75c-.93,0-1.68.75-1.68,1.68s.75,1.68,1.68,1.68h44.33c.93,0,1.68-.75,1.68-1.68Z"/>
  </g>
</svg>