<?xml version="1.0" encoding="UTF-8"?>
<svg id="_レイヤー_2" data-name="レイヤー 2" xmlns="http://www.w3.org/2000/svg" viewBox="0 0 92.65 62">
  <defs>
    <style>
      .cls-1 {
        fill: #636363;
      }
    </style>
  </defs>
  <g id="_編集_ワイヤーフレーム" data-name="編集_ワイヤーフレーム">
    <path class="cls-1" d="M92.65,1.72c0-.95-.77-1.72-1.72-1.72h-1.14s0,0-.01,0H1.72c-.11,0-.22.01-.32.03-.02,0-.04,0-.06.01-.09.02-.17.05-.25.08-.02,0-.04.01-.06.02-.19.09-.37.2-.52.35,0,0,0,.01-.01.01-.07.07-.13.14-.19.22,0,.01-.02.03-.03.04-.05.08-.1.16-.14.25,0,0,0,.02-.01.03,0,.02-.02.03-.02.04C.04,1.3,0,1.5,0,1.71c0,0,0,.01,0,.02v58.55s0,.03,0,.04c0,.07.01.14.02.21,0,.05.01.09.02.13.01.06.03.12.06.18.02.05.03.1.05.14.02.05.05.1.08.15.03.05.06.1.09.15.01.01.02.03.03.04.05.06.1.12.15.17,0,0,0,0,.01.01.07.07.15.13.23.19,0,0,.02.01.03.02.08.05.17.1.26.14.02,0,.03.01.05.02.09.04.18.07.28.09.01,0,.03,0,.04,0,.1.02.21.03.32.03,0,0,0,0,0,0h89.21s0,0,0,0c.11,0,.21-.01.31-.03.02,0,.03,0,.05,0,.09-.02.19-.05.28-.09.02,0,.04-.02.06-.02.09-.04.17-.08.25-.14.01,0,.02-.02.03-.02.08-.05.15-.11.22-.18,0,0,.01-.01.02-.02.05-.05.1-.11.15-.17,0-.01.02-.03.02-.04.04-.05.07-.11.1-.16.03-.04.05-.09.07-.13.02-.05.04-.11.06-.16.02-.05.04-.11.05-.16.01-.05.02-.1.02-.15,0-.06.02-.12.02-.19,0-.02,0-.03,0-.05V1.72ZM60.94,35.25c-.76-.58-1.84-.43-2.41.33-.58.76-.43,1.84.33,2.41l26.98,20.57H6.82l26.98-20.57c.76-.58.9-1.66.33-2.41-.58-.76-1.66-.9-2.41-.33L3.44,56.8V5.59l41.15,37.02c.33.29.74.44,1.15.44s.82-.15,1.15-.44L89.21,4.55v52.25l-28.27-21.55ZM85.28,3.45l-39.54,35.57L6.21,3.45h79.07Z"/>
  </g>
</svg>