<?xml version="1.0" encoding="UTF-8"?>
<svg id="_レイヤー_2" data-name="レイヤー 2" xmlns="http://www.w3.org/2000/svg" viewBox="0 0 53.94 108.57">
  <defs>
    <style>
      .cls-1 {
        fill: #636363;
      }
    </style>
  </defs>
  <g id="_編集_ワイヤーフレーム" data-name="編集_ワイヤーフレーム">
    <path class="cls-1" d="M22.16.97c-.41-.62-1.12-1.02-1.92-.96-1.18.08-2.08,1.11-2,2.29.01.16.04.31.08.45h0c0,.05.02.09.03.14,3.47,7.88,5.8,16.28,6.78,24.78-6.66.46-12.67,3.33-17.12,7.76C3.13,40.28.1,47.01.08,54.44L0,81.56c-.04,14.87,11.98,26.97,26.85,27.01,7.44.02,14.18-2.97,19.07-7.83,4.89-4.86,7.92-11.58,7.94-19.02l.08-27.12c.04-14.06-10.69-25.62-24.43-26.89-1-9.1-3.49-18.09-7.2-26.53,0-.01-.02-.02-.02-.04h0s-.02-.03-.03-.04c-.02-.03-.03-.06-.05-.09-.01-.02-.03-.03-.05-.05ZM4.41,54.46c.02-6.04,2.38-11.7,6.67-15.96,3.76-3.74,8.61-6,13.83-6.47l-.07,23.85-20.43-.06v-1.36ZM49.53,81.71c-.02,6.04-2.38,11.7-6.67,15.96s-9.96,6.59-16,6.57c-12.46-.04-22.57-10.2-22.53-22.66l.06-21.43,45.2.13-.06,21.43ZM43.04,38.59c4.26,4.28,6.59,9.96,6.57,16v1.36s-20.44-.06-20.44-.06l.07-23.85c5.22.51,10.05,2.79,13.79,6.56Z"/>
  </g>
</svg>