<?xml version="1.0" encoding="UTF-8"?>
<svg id="_レイヤー_2" data-name="レイヤー 2" xmlns="http://www.w3.org/2000/svg" xmlns:xlink="http://www.w3.org/1999/xlink" viewBox="0 0 191 49">
  <defs>
    <style>
      .cls-1 {
        fill: none;
        stroke: url(#_名称未設定グラデーション_10);
        stroke-dasharray: 1.01 4.02;
        stroke-miterlimit: 10;
      }

      .cls-2 {
        fill: #3e3e3e;
      }

      .cls-3 {
        fill: url(#_名称未設定グラデーション_136-4);
      }

      .cls-4 {
        fill: url(#_名称未設定グラデーション_136-3);
      }

      .cls-5 {
        fill: url(#_名称未設定グラデーション_136-2);
      }

      .cls-6 {
        fill: url(#_名称未設定グラデーション_136);
      }
    </style>
    <linearGradient id="_名称未設定グラデーション_10" data-name="名称未設定グラデーション 10" x1="0" y1="24.5" x2="191" y2="24.5" gradientUnits="userSpaceOnUse">
      <stop offset="0" stop-color="#181e4d"/>
      <stop offset=".46" stop-color="#4e7fa1"/>
      <stop offset=".65" stop-color="#63a6c2"/>
      <stop offset="1" stop-color="#8aecff"/>
    </linearGradient>
    <linearGradient id="_名称未設定グラデーション_136" data-name="名称未設定グラデーション 136" x1="25.06" y1="24.5" x2="47.06" y2="24.5" gradientUnits="userSpaceOnUse">
      <stop offset="0" stop-color="#181e4d"/>
      <stop offset=".26" stop-color="#19204f"/>
      <stop offset=".41" stop-color="#1d2856"/>
      <stop offset=".53" stop-color="#253661"/>
      <stop offset=".63" stop-color="#304972"/>
      <stop offset=".72" stop-color="#3e6388"/>
      <stop offset=".81" stop-color="#4f82a3"/>
      <stop offset=".89" stop-color="#64a7c3"/>
      <stop offset=".96" stop-color="#7bd1e8"/>
      <stop offset="1" stop-color="#8aecff"/>
    </linearGradient>
    <linearGradient id="_名称未設定グラデーション_136-2" data-name="名称未設定グラデーション 136" x1="26.3" y1="21.95" x2="45.82" y2="21.95" xlink:href="#_名称未設定グラデーション_136"/>
    <linearGradient id="_名称未設定グラデーション_136-3" data-name="名称未設定グラデーション 136" x1="26.35" y1="27.56" x2="34.4" y2="27.56" xlink:href="#_名称未設定グラデーション_136"/>
    <linearGradient id="_名称未設定グラデーション_136-4" data-name="名称未設定グラデーション 136" x1="37.72" y1="27.56" x2="45.78" y2="27.56" xlink:href="#_名称未設定グラデーション_136"/>
  </defs>
  <g id="_編集_ワイヤーフレーム" data-name="編集_ワイヤーフレーム">
    <g>
      <rect class="cls-1" x=".5" y=".5" width="190" height="48" rx="5" ry="5"/>
      <g>
        <path class="cls-2" d="M63.29,15.82l-7.63,17.82c-.05.09-.12.12-.19.08l-.75-.35c-.09-.05-.12-.12-.08-.19l7.65-17.82c.05-.09.12-.12.19-.08l.73.35c.09.05.12.12.08.19Z"/>
        <path class="cls-2" d="M74.42,33.01c-1.34-.63-2.46-1.6-3.37-2.92-.91-1.31-1.36-2.94-1.36-4.9,0-1.66.37-3.22,1.11-4.66.74-1.44,1.74-2.59,2.99-3.46,1.25-.86,2.62-1.3,4.1-1.3.5,0,.98.06,1.44.17.46.11.95.26,1.46.46.24.08.47.15.69.22.22.06.4.1.54.1.43,0,.84-.16,1.21-.48.06-.05.12-.06.16-.05.04.02.07.06.08.12l.89,3.74.05.24c0,.1-.06.18-.19.26-.03.02-.07.02-.12.02-.08,0-.17-.06-.27-.17-.06-.1-.35-.51-.86-1.25-.51-.74-1.19-1.34-2.04-1.81-.85-.47-1.79-.71-2.82-.71-1.5,0-2.64.54-3.44,1.61s-1.32,2.23-1.57,3.47c-.25,1.24-.37,2.29-.37,3.16,0,1.74.3,3.21.89,4.4.59,1.19,1.35,2.08,2.28,2.65.92.58,1.88.86,2.86.86,1.29,0,2.36-.33,3.21-1,.85-.66,1.65-1.56,2.39-2.7.08-.1.15-.14.22-.14.05,0,.12.04.22.12.1.06.15.14.15.24l-.05.14c-.61,1.17-1.44,2.21-2.49,3.12-1.05.91-2.38,1.37-4.01,1.37-1.32,0-2.65-.32-3.98-.95Z"/>
        <path class="cls-2" d="M89.96,33.07c-.9-.59-1.6-1.36-2.09-2.29-.49-.94-.74-1.91-.74-2.92s.24-2.05.72-2.98,1.17-1.68,2.08-2.24c.9-.57,1.95-.85,3.14-.85s2.24.28,3.14.85c.9.57,1.59,1.32,2.08,2.24.48.93.72,1.92.72,2.98s-.25,1.98-.74,2.92c-.49.94-1.19,1.7-2.09,2.29-.9.59-1.94.89-3.11.89s-2.21-.3-3.11-.89ZM95.5,31.66c.59-1.03.88-2.3.88-3.8s-.29-2.83-.87-3.84c-.58-1.01-1.39-1.51-2.44-1.51s-1.86.5-2.44,1.51c-.58,1.01-.87,2.29-.87,3.84s.29,2.77.88,3.8c.59,1.03,1.4,1.55,2.43,1.55s1.84-.52,2.43-1.55Z"/>
        <path class="cls-2" d="M114.65,33.02c.11,0,.17.1.17.31,0,.19-.06.29-.17.29h-5.89c-.11,0-.17-.1-.17-.29,0-.21.06-.31.17-.31h.31c.45,0,.8-.07,1.05-.22.25-.14.37-.44.37-.89v-4.32l-.02-1.82c-.06-1.89-.8-2.83-2.2-2.83-.58,0-1.13.18-1.65.53-.52.35-.98.86-1.36,1.54l-.02,6.91c0,.45.13.74.39.89.26.14.62.22,1.09.22h.27c.11,0,.17.1.17.31,0,.19-.06.29-.17.29h-5.86c-.13,0-.19-.1-.19-.29,0-.21.06-.31.19-.31h.29c.45,0,.8-.07,1.06-.22.26-.14.39-.44.39-.89l-.05-7.37c0-.5-.12-.82-.37-.97-.25-.15-.67-.25-1.27-.3-.15-.02-.22-.14-.22-.38,0-.06,0-.1.02-.12.02-.03.09-.06.22-.1l2.27-.5,1.59-.34h.05c.11,0,.17.06.17.17v1.92c1.01-1.42,2.24-2.14,3.69-2.14,1.29,0,2.26.36,2.92,1.07.66.71,1.01,1.57,1.06,2.58.02.34.02,1.02.02,2.04,0,1.28-.02,2.76-.05,4.44,0,.45.12.74.37.89.25.14.61.22,1.07.22h.29Z"/>
        <path class="cls-2" d="M118.71,33.13c-.52-.55-.79-1.36-.81-2.44v-7.82h-1.86c-.13,0-.19-.06-.19-.19v-.5c0-.13.06-.2.17-.22,1-.27,1.81-.75,2.43-1.43.62-.68,1.07-1.76,1.36-3.23.02-.11.08-.17.19-.17h.14c.13,0,.19.06.19.19v4.68h2.9c.13,0,.19.06.19.19v.48c0,.13-.06.19-.19.19h-2.92v5.66c0,1.17,0,1.84.02,2.02.06,1.41.6,2.11,1.62,2.11.35,0,.65-.06.89-.18.24-.12.5-.33.77-.64.08-.1.15-.14.22-.14.08,0,.16.04.23.11s.11.15.11.23c0,.06-.02.11-.05.14-.79,1.18-1.83,1.78-3.11,1.78-1.01,0-1.78-.28-2.3-.83Z"/>
        <path class="cls-2" d="M137.66,31.6s.06.08.06.14l-.02.12c-.23.64-.59,1.14-1.1,1.5s-1.03.54-1.56.54c-1.09,0-1.79-.55-2.1-1.66-.61.56-1.3.98-2.06,1.27-.76.29-1.52.43-2.28.43-.98,0-1.76-.23-2.33-.68-.57-.46-.86-1.08-.86-1.86,0-.62.16-1.16.47-1.62.31-.46.78-.86,1.41-1.21.37-.21.78-.37,1.24-.49.46-.12,1.14-.28,2.04-.49,1.22-.29,1.96-.47,2.22-.55v-1.06c0-.86-.03-1.49-.1-1.88-.06-.39-.21-.72-.43-1-.34-.4-.84-.6-1.52-.6-.5,0-.9.14-1.21.41-.31.27-.56.76-.77,1.46-.13.48-.32.84-.58,1.09s-.56.37-.89.37-.64-.11-.92-.32c-.27-.22-.41-.5-.41-.85,0-.3.12-.68.35-1.12.23-.44.71-.84,1.42-1.21.72-.37,1.72-.55,3-.55.88,0,1.66.12,2.32.37s1.16.57,1.5.97c.27.34.45.69.54,1.06.09.37.13.82.13,1.37,0,1.01,0,1.81-.02,2.4l-.02,2.88c0,1.1.32,1.66.97,1.66.48,0,.88-.27,1.21-.82.05-.08.1-.12.17-.12.05,0,.09.02.13.05ZM131.43,32.4c.51-.21.96-.51,1.36-.91-.03-.32-.05-.58-.05-.77l.02-2.93c-1.62.38-2.82.84-3.6,1.37-.77.53-1.16,1.19-1.16,1.99,0,.45.17.82.49,1.12.33.3.81.44,1.44.44.48,0,.98-.1,1.48-.31Z"/>
        <path class="cls-2" d="M141.83,33.21c-.91-.48-1.65-1.17-2.21-2.08-.56-.9-.84-1.96-.84-3.18,0-.98.23-1.94.7-2.89.47-.95,1.15-1.74,2.06-2.35.91-.62,1.99-.92,3.25-.92,1.01,0,1.86.15,2.55.44.68.3,1.19.65,1.51,1.07s.48.81.48,1.18-.11.65-.34.89c-.23.24-.49.36-.8.36-.35,0-.66-.12-.91-.37-.25-.25-.49-.6-.74-1.04-.31-.56-.62-.99-.95-1.3-.33-.3-.71-.46-1.15-.46-.56,0-1.07.22-1.52.66-.45.44-.8,1.06-1.06,1.86-.26.8-.39,1.73-.39,2.78,0,1.15.18,2.1.54,2.84.36.74.82,1.28,1.39,1.62.56.34,1.16.5,1.79.5,1.48,0,2.67-.65,3.57-1.94.08-.1.16-.14.24-.14.05,0,.1.02.17.05.11.06.17.14.17.24,0,.06-.02.12-.05.17-.43.8-1.05,1.46-1.83,1.97-.79.51-1.71.77-2.75.77s-1.98-.24-2.88-.72Z"/>
        <path class="cls-2" d="M153.59,33.13c-.52-.55-.79-1.36-.81-2.44v-7.82h-1.86c-.13,0-.19-.06-.19-.19v-.5c0-.13.06-.2.17-.22,1-.27,1.81-.75,2.43-1.43.62-.68,1.07-1.76,1.36-3.23.02-.11.08-.17.19-.17h.14c.13,0,.19.06.19.19v4.68h2.9c.13,0,.19.06.19.19v.48c0,.13-.06.19-.19.19h-2.92v5.66c0,1.17,0,1.84.02,2.02.06,1.41.6,2.11,1.62,2.11.35,0,.65-.06.89-.18.24-.12.5-.33.77-.64.08-.1.15-.14.22-.14.08,0,.16.04.23.11s.11.15.11.23c0,.06-.02.11-.05.14-.79,1.18-1.83,1.78-3.11,1.78-1.01,0-1.78-.28-2.3-.83Z"/>
      </g>
      <g>
        <path class="cls-6" d="M44.97,32.5h-17.82c-1.15,0-2.09-.98-2.09-2.19v-11.61c0-1.21.94-2.19,2.09-2.19h17.82c1.15,0,2.09.98,2.09,2.19v11.61c0,1.21-.94,2.19-2.09,2.19ZM27.15,17.72c-.51,0-.93.44-.93.98v11.61c0,.54.42.98.93.98h17.82c.51,0,.93-.44.93-.98v-11.61c0-.54-.42-.98-.93-.98h-17.82Z"/>
        <path class="cls-5" d="M36.06,25.88l-9.5-6.74c-.27-.19-.33-.57-.16-.84.18-.28.54-.35.8-.16l8.85,6.28,8.85-6.28c.27-.19.63-.11.8.16.18.28.11.66-.16.84l-9.5,6.74Z"/>
        <path class="cls-4" d="M26.93,31.1c-.17,0-.34-.08-.45-.23-.2-.26-.16-.64.09-.86l6.89-5.87c.25-.21.61-.17.82.09.2.26.16.64-.09.86l-6.89,5.87c-.11.09-.24.14-.36.14Z"/>
        <path class="cls-3" d="M45.2,31.1c-.13,0-.26-.04-.36-.14l-6.89-5.87c-.25-.21-.29-.59-.09-.86.2-.26.57-.3.82-.09l6.89,5.87c.25.21.29.59.09.86-.11.15-.28.23-.45.23Z"/>
      </g>
    </g>
  </g>
</svg>