<?xml version="1.0" encoding="UTF-8"?>
<svg id="_レイヤー_2" data-name="レイヤー 2" xmlns="http://www.w3.org/2000/svg" xmlns:xlink="http://www.w3.org/1999/xlink" viewBox="0 0 474.59 412.12">
  <defs>
    <style>
      .cls-1, .cls-2 {
        fill: none;
      }

      .cls-2 {
        stroke: url(#_名称未設定グラデーション_127);
        stroke-miterlimit: 10;
        stroke-width: .5px;
      }

      .cls-3 {
        clip-path: url(#clippath);
      }
    </style>
    <clipPath id="clippath">
      <rect class="cls-1" x="84.59" y="54.09" width="390" height="358.02"/>
    </clipPath>
    <linearGradient id="_名称未設定グラデーション_127" data-name="名称未設定グラデーション 127" x1="3981.87" y1="852.74" x2="4495.95" y2="852.74" gradientTransform="translate(4552.73 527.7) rotate(-164.33) scale(1 -1)" gradientUnits="userSpaceOnUse">
      <stop offset="0" stop-color="#8aecff"/>
      <stop offset=".43" stop-color="#5a95b4"/>
      <stop offset="1" stop-color="#181e4d"/>
    </linearGradient>
  </defs>
  <g id="_編集_ワイヤーフレーム" data-name="編集_ワイヤーフレーム">
    <g class="cls-3">
      <path class="cls-2" d="M38.05.15c42.14,53.41,69.52,116.68,103.87,175.4,28.63,48.94,62.53,95.21,104.25,133.61,41.72,38.4,91.56,68.78,146.34,83.4,15.86,4.23,33.3,8.14,48.58-.05,10.53-5.65,18.49-15.88,21.38-27.48,3.9-15.69-1.5-32.62-11.2-45.56-28.36-37.81-84.6-52.26-127.41-66.11-50.12-16.21-100.08-31.29-148.56-51.96-48.28-20.59-95.34-44.03-140.86-70.16-11.49-6.6-22.99-13.27-34.32-20.14"/>
    </g>
  </g>
</svg>