<?xml version="1.0" encoding="UTF-8"?>
<svg id="_レイヤー_2" data-name="レイヤー 2" xmlns="http://www.w3.org/2000/svg" xmlns:xlink="http://www.w3.org/1999/xlink" viewBox="0 0 1347 735">
  <defs>
    <style>
      .cls-1, .cls-2 {
        fill: none;
      }

      .cls-2 {
        stroke: url(#_名称未設定グラデーション_12);
        stroke-miterlimit: 10;
        stroke-width: 1.08px;
      }

      .cls-3 {
        clip-path: url(#clippath);
      }
    </style>
    <clipPath id="clippath">
      <rect class="cls-1" width="1347" height="735"/>
    </clipPath>
    <linearGradient id="_名称未設定グラデーション_12" data-name="名称未設定グラデーション 12" x1="258.5" y1="-31.51" x2="1817.83" y2="-31.51" gradientTransform="translate(1602.62 512.04) rotate(-172.1) scale(1 -1)" gradientUnits="userSpaceOnUse">
      <stop offset="0" stop-color="#8aecff"/>
      <stop offset=".19" stop-color="#88e8fc"/>
      <stop offset=".33" stop-color="#83dff4"/>
      <stop offset=".46" stop-color="#7acfe6"/>
      <stop offset=".58" stop-color="#6db8d2"/>
      <stop offset=".69" stop-color="#5d9ab8"/>
      <stop offset=".8" stop-color="#497699"/>
      <stop offset=".9" stop-color="#314c75"/>
      <stop offset="1" stop-color="#181e4d"/>
    </linearGradient>
  </defs>
  <g id="_編集_ワイヤーフレーム" data-name="編集_ワイヤーフレーム">
    <g class="cls-3">
      <path class="cls-2" d="M-119.81-64.11C30.7,44.17,140.36,179.43,269.39,302.18c107.53,102.31,229.98,196.93,372.97,271.24,142.99,74.31,307.41,127.88,480.31,144.13,50.05,4.7,104.78,8.17,147.92-15.18,29.73-16.09,49.72-41.82,53.68-69.05,5.35-36.85-18.12-73.65-53.02-100.03-102.06-77.11-279.33-92.5-415.47-110.7-159.37-21.3-317.76-40.06-474-72.01-155.57-31.82-308.62-70.48-458.09-115.74-37.74-11.43-75.53-23.02-112.87-35.12"/>
    </g>
  </g>
</svg>