<?xml version="1.0" encoding="UTF-8"?>
<svg id="_レイヤー_2" data-name="レイヤー 2" xmlns="http://www.w3.org/2000/svg" xmlns:xlink="http://www.w3.org/1999/xlink" viewBox="0 0 1332.67 916.4">
  <defs>
    <style>
      .cls-1, .cls-2 {
        fill: none;
      }

      .cls-2 {
        stroke: url(#_名称未設定グラデーション_12);
        stroke-miterlimit: 10;
        stroke-width: 1.08px;
      }

      .cls-3 {
        clip-path: url(#clippath);
      }
    </style>
    <clipPath id="clippath">
      <rect class="cls-1" x="0" y="0" width="1332.67" height="916.4"/>
    </clipPath>
    <linearGradient id="_名称未設定グラデーション_12" data-name="名称未設定グラデーション 12" x1="133.7" y1="56.96" x2="1693.03" y2="56.96" gradientTransform="translate(1589.59 511.14) rotate(-172.1) scale(1 -1)" gradientUnits="userSpaceOnUse">
      <stop offset="0" stop-color="#8aecff"/>
      <stop offset=".19" stop-color="#88e8fc"/>
      <stop offset=".33" stop-color="#83dff4"/>
      <stop offset=".46" stop-color="#7acfe6"/>
      <stop offset=".58" stop-color="#6db8d2"/>
      <stop offset=".69" stop-color="#5d9ab8"/>
      <stop offset=".8" stop-color="#497699"/>
      <stop offset=".9" stop-color="#314c75"/>
      <stop offset="1" stop-color="#181e4d"/>
    </linearGradient>
  </defs>
  <g id="_編集_ワイヤーフレーム" data-name="編集_ワイヤーフレーム">
    <g class="cls-3">
      <path class="cls-2" d="M-21.39,39.78c150.51,108.29,260.17,243.54,389.19,366.3,107.53,102.31,229.98,196.93,372.97,271.24,142.99,74.31,307.41,127.88,480.31,144.13,50.05,4.7,104.78,8.17,147.92-15.18,29.73-16.09,49.72-41.82,53.68-69.05,5.35-36.85-18.12-73.65-53.02-100.03-102.06-77.11-279.33-92.5-415.47-110.7-159.37-21.3-317.76-40.06-474-72.01-155.57-31.82-308.62-70.48-458.09-115.74-37.74-11.43-75.53-23.02-112.87-35.12"/>
    </g>
  </g>
</svg>