<?xml version="1.0" encoding="UTF-8"?>
<svg id="_レイヤー_2" data-name="レイヤー 2" xmlns="http://www.w3.org/2000/svg" viewBox="0 0 28.21 19.72">
  <defs>
    <style>
      .cls-1 {
        fill: #fff;
      }
    </style>
  </defs>
  <g id="_編集_ワイヤーフレーム" data-name="編集_ワイヤーフレーム">
    <g>
      <path class="cls-1" d="M25.53,19.72H2.68c-1.48,0-2.68-1.21-2.68-2.7V2.7C0,1.21,1.2,0,2.68,0h22.85c1.48,0,2.68,1.21,2.68,2.7v14.31c0,1.49-1.2,2.7-2.68,2.7ZM2.68,1.5c-.66,0-1.19.54-1.19,1.21v14.31c0,.66.54,1.21,1.19,1.21h22.85c.66,0,1.19-.54,1.19-1.21V2.7c0-.66-.54-1.21-1.19-1.21H2.68Z"/>
      <path class="cls-1" d="M14.11,11.56L1.92,3.25c-.34-.23-.43-.7-.2-1.04.23-.34.69-.43,1.03-.2l11.35,7.74,11.35-7.74c.34-.23.8-.14,1.03.2.23.34.14.81-.2,1.04l-12.19,8.31Z"/>
      <path class="cls-1" d="M2.39,18c-.22,0-.43-.09-.58-.28-.26-.32-.21-.79.11-1.05l8.84-7.23c.32-.26.79-.21,1.05.11.26.32.21.79-.11,1.05l-8.84,7.23c-.14.11-.3.17-.47.17Z"/>
      <path class="cls-1" d="M25.82,18c-.16,0-.33-.05-.47-.17l-8.84-7.23c-.32-.26-.37-.73-.11-1.05.26-.32.73-.37,1.05-.11l8.84,7.23c.32.26.37.73.11,1.05-.15.18-.36.28-.58.28Z"/>
    </g>
  </g>
</svg>